<svg version="1.2" xmlns="http://www.w3.org/2000/svg" xmlns:xlink="http://www.w3.org/1999/xlink" overflow="visible" preserveAspectRatio="none" viewBox="0 0 85.06999969482422 39.689998626708984" width="172" height="77"><g transform="translate(1, 1)"><g id="ca6ea983-4cd7-414d-85c4-d06f1b55c97a_1561965128889"><g id="70e8100d-a183-468c-ae86-733252c7ab02_1561965128889"><g><path fill="#7f8038" d="M12.65,17.57a.48.48,0,0,0,0,.39.46.46,0,0,0,.4.23.6.6,0,0,0,.31-.1.58.58,0,0,0,.24-.32.44.44,0,0,0,0-.39.45.45,0,0,0-.4-.22.56.56,0,0,0-.31.09A.66.66,0,0,0,12.65,17.57Z" vector-effect="non-scaling-stroke"/><path fill="#7f8038" d="M12.31,19.47a.43.43,0,0,0,.38.21.55.55,0,0,0,.3-.09.59.59,0,0,0,.24-.3.45.45,0,0,0,0-.38.41.41,0,0,0-.39-.21.6.6,0,0,0-.29.08A.53.53,0,0,0,12.31,19.47Z" vector-effect="non-scaling-stroke"/><path fill="#7f8038" d="M12.78,20.22a.53.53,0,0,0-.51.38.47.47,0,0,0,0,.37.44.44,0,0,0,.38.21.52.52,0,0,0,.29-.09.51.51,0,0,0,.19-.67A.41.41,0,0,0,12.78,20.22Z" vector-effect="non-scaling-stroke"/><path fill="#7f8038" d="M12.68,22.36a.41.41,0,0,0,.37.21.54.54,0,0,0,.28-.08.52.52,0,0,0,.2-.66.42.42,0,0,0-.38-.2.57.57,0,0,0-.28.08A.51.51,0,0,0,12.68,22.36Z" vector-effect="non-scaling-stroke"/><path fill="#7f8038" d="M14.29,23.4a.45.45,0,0,0,0-.36.41.41,0,0,0-.38-.2.57.57,0,0,0-.28.08.51.51,0,0,0-.19.65.39.39,0,0,0,.37.21.49.49,0,0,0,.28-.09A.55.55,0,0,0,14.29,23.4Z" vector-effect="non-scaling-stroke"/><path fill="#7f8038" d="M14.56,24.59a.41.41,0,0,0,.37.21.54.54,0,0,0,.49-.76.43.43,0,0,0-.38-.2.49.49,0,0,0-.29.08A.51.51,0,0,0,14.56,24.59Z" vector-effect="non-scaling-stroke"/><path fill="#7f8038" d="M15.88,25.25a.47.47,0,0,0,.39.22.54.54,0,0,0,.3-.1.53.53,0,0,0,.24-.31.46.46,0,0,0,0-.38.45.45,0,0,0-.39-.21.53.53,0,0,0-.3.09.57.57,0,0,0-.24.31A.5.5,0,0,0,15.88,25.25Z" vector-effect="non-scaling-stroke"/><path fill="#7f8038" d="M17.7,25.67a.56.56,0,0,0,.31-.09.64.64,0,0,0,.25-.32.5.5,0,0,0,0-.4.47.47,0,0,0-.41-.23.57.57,0,0,0-.31.1.56.56,0,0,0-.22.72A.48.48,0,0,0,17.7,25.67Z" vector-effect="non-scaling-stroke"/><path fill="#7f8038" d="M19.21,25.53a.53.53,0,0,0,.32-.1.58.58,0,0,0,.23-.76.48.48,0,0,0-.43-.23.63.63,0,0,0-.32.1.65.65,0,0,0-.27.34.55.55,0,0,0,0,.42A.48.48,0,0,0,19.21,25.53Z" vector-effect="non-scaling-stroke"/><path fill="#7f8038" d="M21.24,24.16a.52.52,0,0,0-.45-.24.67.67,0,0,0-.34.1.65.65,0,0,0-.27.36.53.53,0,0,0,0,.43.52.52,0,0,0,.44.25A.66.66,0,0,0,21,25a.65.65,0,0,0,.27-.36A.53.53,0,0,0,21.24,24.16Z" vector-effect="non-scaling-stroke"/><path fill="#7f8038" d="M22.67,23.28A.55.55,0,0,0,22.2,23a.66.66,0,0,0-.36.11.65.65,0,0,0-.25.84.52.52,0,0,0,.46.26.6.6,0,0,0,.36-.12A.64.64,0,0,0,22.67,23.28Z" vector-effect="non-scaling-stroke"/><path fill="#7f8038" d="M22.74,22.83a.55.55,0,0,0,.48.27.77.77,0,0,0,.39-.11.69.69,0,0,0,.26-.88.55.55,0,0,0-.49-.27A.71.71,0,0,0,23,22,.68.68,0,0,0,22.74,22.83Z" vector-effect="non-scaling-stroke"/><path fill="#7f8038" d="M11.39,16.88a.49.49,0,0,0,0,.38.43.43,0,0,0,.39.22.55.55,0,0,0,.3-.09.66.66,0,0,0,.24-.31.5.5,0,0,0,0-.38.45.45,0,0,0-.4-.22.52.52,0,0,0-.29.09A.6.6,0,0,0,11.39,16.88Z" vector-effect="non-scaling-stroke"/><path fill="#7f8038" d="M10.89,18.4a.52.52,0,0,0,0,.37.42.42,0,0,0,.38.21.54.54,0,0,0,.48-.75.42.42,0,0,0-.38-.21.54.54,0,0,0-.28.08A.63.63,0,0,0,10.89,18.4Z" vector-effect="non-scaling-stroke"/><path fill="#7f8038" d="M11.2,19.58a.45.45,0,0,0-.27.08.6.6,0,0,0-.22.28.45.45,0,0,0,0,.36.43.43,0,0,0,.36.2.49.49,0,0,0,.28-.09.56.56,0,0,0,.22-.28.45.45,0,0,0,0-.36A.42.42,0,0,0,11.2,19.58Z" vector-effect="non-scaling-stroke"/><path fill="#7f8038" d="M11.05,21.17a.47.47,0,0,0-.21.27.4.4,0,0,0,0,.34.38.38,0,0,0,.35.2.53.53,0,0,0,.27-.08.49.49,0,0,0,.18-.62.39.39,0,0,0-.35-.19A.43.43,0,0,0,11.05,21.17Z" vector-effect="non-scaling-stroke"/><path fill="#7f8038" d="M11.64,23.37a.56.56,0,0,0,.27-.08.48.48,0,0,0,.18-.61.39.39,0,0,0-.35-.19.44.44,0,0,0-.26.07.48.48,0,0,0-.19.62A.41.41,0,0,0,11.64,23.37Z" vector-effect="non-scaling-stroke"/><path fill="#7f8038" d="M12.62,24.52a.46.46,0,0,0,.18-.61.39.39,0,0,0-.35-.19.5.5,0,0,0-.26.08.48.48,0,0,0-.18.61.39.39,0,0,0,.35.19A.42.42,0,0,0,12.62,24.52Z" vector-effect="non-scaling-stroke"/><path fill="#7f8038" d="M13.83,25a.4.4,0,0,0-.36-.19.5.5,0,0,0-.26.08.48.48,0,0,0-.18.62.39.39,0,0,0,.35.19.47.47,0,0,0,.27-.08A.49.49,0,0,0,13.83,25Z" vector-effect="non-scaling-stroke"/><path fill="#7f8038" d="M15.08,26.05a.52.52,0,0,0,0-.35.42.42,0,0,0-.37-.2.5.5,0,0,0-.27.08.54.54,0,0,0-.22.28.45.45,0,0,0,0,.36.4.4,0,0,0,.36.2.49.49,0,0,0,.28-.09A.56.56,0,0,0,15.08,26.05Z" vector-effect="non-scaling-stroke"/><path fill="#7f8038" d="M15.64,26.74A.44.44,0,0,0,16,27a.52.52,0,0,0,.29-.09.55.55,0,0,0,.22-.3.41.41,0,0,0,0-.36.42.42,0,0,0-.38-.21.54.54,0,0,0-.28.08.57.57,0,0,0-.23.3A.47.47,0,0,0,15.64,26.74Z" vector-effect="non-scaling-stroke"/><path fill="#7f8038" d="M17,26.91a.43.43,0,0,0,.39.22.53.53,0,0,0,.3-.09.61.61,0,0,0,.24-.31.49.49,0,0,0,0-.38.45.45,0,0,0-.4-.22.5.5,0,0,0-.29.09.6.6,0,0,0-.24.31A.42.42,0,0,0,17,26.91Z" vector-effect="non-scaling-stroke"/><path fill="#7f8038" d="M18.53,26.81a.44.44,0,0,0,.41.23.59.59,0,0,0,.53-.82.46.46,0,0,0-.41-.23.5.5,0,0,0-.31.1.59.59,0,0,0-.26.32A.5.5,0,0,0,18.53,26.81Z" vector-effect="non-scaling-stroke"/><path fill="#7f8038" d="M21.05,25.84a.48.48,0,0,0-.43-.24.59.59,0,0,0-.34.1.61.61,0,0,0-.23.77.5.5,0,0,0,.44.24.58.58,0,0,0,.33-.1.71.71,0,0,0,.27-.35A.51.51,0,0,0,21.05,25.84Z" vector-effect="non-scaling-stroke"/><path fill="#7f8038" d="M22.51,25.11a.52.52,0,0,0-.45-.24.6.6,0,0,0-.35.1.7.7,0,0,0-.28.36.51.51,0,0,0,0,.44.5.5,0,0,0,.45.26.66.66,0,0,0,.35-.11A.64.64,0,0,0,22.51,25.11Z" vector-effect="non-scaling-stroke"/><path fill="#7f8038" d="M23.22,25.11A.76.76,0,0,0,23.6,25a.66.66,0,0,0,.25-.85.52.52,0,0,0-.47-.27A.63.63,0,0,0,23,24a.66.66,0,0,0-.26.85A.55.55,0,0,0,23.22,25.11Z" vector-effect="non-scaling-stroke"/><path fill="#7f8038" d="M24.38,24a.67.67,0,0,0,.39-.12A.68.68,0,0,0,25,23a.55.55,0,0,0-.49-.27.73.73,0,0,0-.66,1A.55.55,0,0,0,24.38,24Z" vector-effect="non-scaling-stroke"/><path fill="#7f8038" d="M10.65,15.81a.54.54,0,0,0-.49.76.44.44,0,0,0,.38.21.55.55,0,0,0,.3-.09A.52.52,0,0,0,11,16,.45.45,0,0,0,10.65,15.81Z" vector-effect="non-scaling-stroke"/><path fill="#7f8038" d="M10.46,17.9a.45.45,0,0,0,0-.36.42.42,0,0,0-.37-.19.45.45,0,0,0-.27.08.6.6,0,0,0-.22.28.45.45,0,0,0,0,.36.42.42,0,0,0,.36.2.49.49,0,0,0,.28-.09A.6.6,0,0,0,10.46,17.9Z" vector-effect="non-scaling-stroke"/><path fill="#7f8038" d="M9.26,19.26a.4.4,0,0,0,0,.34.39.39,0,0,0,.35.19.42.42,0,0,0,.26-.08.47.47,0,0,0,.21-.27.4.4,0,0,0,0-.34.39.39,0,0,0-.35-.19.5.5,0,0,0-.26.08A.51.51,0,0,0,9.26,19.26Z" vector-effect="non-scaling-stroke"/><path fill="#7f8038" d="M9.24,21.13a.37.37,0,0,0,.33.19.5.5,0,0,0,.26-.08.45.45,0,0,0,.17-.59.37.37,0,0,0-.34-.19.46.46,0,0,0-.25.08.52.52,0,0,0-.2.26A.38.38,0,0,0,9.24,21.13Z" vector-effect="non-scaling-stroke"/><path fill="#7f8038" d="M9.86,22a.48.48,0,0,0-.24.07.47.47,0,0,0-.2.26.41.41,0,0,0,0,.31.36.36,0,0,0,.33.19.43.43,0,0,0,.24-.08.44.44,0,0,0,.2-.25.39.39,0,0,0,0-.32A.37.37,0,0,0,9.86,22Z" vector-effect="non-scaling-stroke"/><path fill="#7f8038" d="M10.24,24.16a.44.44,0,0,0,.24-.07.42.42,0,0,0,.16-.56.36.36,0,0,0-.32-.18.43.43,0,0,0-.24.08.43.43,0,0,0-.16.56A.35.35,0,0,0,10.24,24.16Z" vector-effect="non-scaling-stroke"/><path fill="#7f8038" d="M10.94,25.44a.5.5,0,0,0,.26-.08.57.57,0,0,0,.2-.26.42.42,0,0,0,0-.33.38.38,0,0,0-.34-.19.5.5,0,0,0-.45.34.38.38,0,0,0,0,.33A.4.4,0,0,0,10.94,25.44Z" vector-effect="non-scaling-stroke"/><path fill="#7f8038" d="M11.87,26.52a.45.45,0,0,0,.27-.08.47.47,0,0,0,.2-.26.4.4,0,0,0,0-.34.42.42,0,0,0-.35-.19.44.44,0,0,0-.25.08.51.51,0,0,0-.21.27.47.47,0,0,0,0,.33A.39.39,0,0,0,11.87,26.52Z" vector-effect="non-scaling-stroke"/><path fill="#7f8038" d="M13,27.35a.49.49,0,0,0,.25-.08.46.46,0,0,0,.18-.59A.4.4,0,0,0,13,26.5a.48.48,0,0,0-.26.07.46.46,0,0,0-.17.59A.38.38,0,0,0,13,27.35Z" vector-effect="non-scaling-stroke"/><path fill="#7f8038" d="M14.23,28.08A.5.5,0,0,0,14.5,28a.48.48,0,0,0,.18-.61.39.39,0,0,0-.35-.19.42.42,0,0,0-.26.08.46.46,0,0,0-.18.61A.39.39,0,0,0,14.23,28.08Z" vector-effect="non-scaling-stroke"/><path fill="#7f8038" d="M15.85,27.55a.52.52,0,0,0-.49.37.42.42,0,0,0,0,.35.4.4,0,0,0,.36.2.48.48,0,0,0,.28-.08.51.51,0,0,0,.19-.64A.42.42,0,0,0,15.85,27.55Z" vector-effect="non-scaling-stroke"/><path fill="#7f8038" d="M16.76,28.45a.43.43,0,0,0,.38.21.52.52,0,0,0,.29-.09.57.57,0,0,0,.23-.3.43.43,0,0,0,0-.37.43.43,0,0,0-.38-.21.5.5,0,0,0-.29.09A.5.5,0,0,0,16.76,28.45Z" vector-effect="non-scaling-stroke"/><path fill="#7f8038" d="M18.23,28.39a.46.46,0,0,0,.41.23.49.49,0,0,0,.3-.1.57.57,0,0,0,.25-.32.48.48,0,0,0,0-.39.45.45,0,0,0-.41-.22.53.53,0,0,0-.3.09A.55.55,0,0,0,18.23,28.39Z" vector-effect="non-scaling-stroke"/><path fill="#7f8038" d="M20.3,27.16a.63.63,0,0,0-.32.1.57.57,0,0,0-.22.74.47.47,0,0,0,.42.24.63.63,0,0,0,.32-.1.58.58,0,0,0,.22-.75A.47.47,0,0,0,20.3,27.16Z" vector-effect="non-scaling-stroke"/><path fill="#7f8038" d="M21.8,26.65a.59.59,0,0,0-.33.11.6.6,0,0,0-.24.78.49.49,0,0,0,.44.25.66.66,0,0,0,.35-.11.61.61,0,0,0,.23-.79A.49.49,0,0,0,21.8,26.65Z" vector-effect="non-scaling-stroke"/><path fill="#7f8038" d="M23.09,27a.64.64,0,0,0,.37-.11.65.65,0,0,0,.25-.83.53.53,0,0,0-.47-.26.66.66,0,0,0-.36.11.73.73,0,0,0-.29.38.57.57,0,0,0,0,.46A.51.51,0,0,0,23.09,27Z" vector-effect="non-scaling-stroke"/><path fill="#7f8038" d="M24.36,26a.76.76,0,0,0,.38-.11.79.79,0,0,0,.3-.4A.55.55,0,0,0,25,25a.53.53,0,0,0-.48-.27.68.68,0,0,0-.38.12.73.73,0,0,0-.3.39.58.58,0,0,0,0,.47A.55.55,0,0,0,24.36,26Z" vector-effect="non-scaling-stroke"/><path fill="#7f8038" d="M25,24.51a.58.58,0,0,0,.5.28.72.72,0,0,0,.4-.12.86.86,0,0,0,.32-.41.62.62,0,0,0,0-.5.55.55,0,0,0-.5-.28.71.71,0,0,0-.39.12A.8.8,0,0,0,25,24,.62.62,0,0,0,25,24.51Z" vector-effect="non-scaling-stroke"/><path fill="#7f8038" d="M9.39,15.14a.51.51,0,0,0-.51.38.45.45,0,0,0,0,.36.41.41,0,0,0,.37.21.53.53,0,0,0,.48-.75A.42.42,0,0,0,9.39,15.14Z" vector-effect="non-scaling-stroke"/><path fill="#7f8038" d="M8.65,17.56a.47.47,0,0,0,.27-.08.49.49,0,0,0,.18-.62.39.39,0,0,0-.35-.19.5.5,0,0,0-.27.08.48.48,0,0,0-.18.62A.39.39,0,0,0,8.65,17.56Z" vector-effect="non-scaling-stroke"/><path fill="#7f8038" d="M7.87,18.57a.38.38,0,0,0,0,.33.36.36,0,0,0,.33.19A.5.5,0,0,0,8.49,19a.46.46,0,0,0,.17-.59.39.39,0,0,0-.34-.18.45.45,0,0,0-.25.07A.46.46,0,0,0,7.87,18.57Z" vector-effect="non-scaling-stroke"/><path fill="#7f8038" d="M8,20.62a.4.4,0,0,0,.24-.07.47.47,0,0,0,.19-.25.36.36,0,0,0-.34-.49.48.48,0,0,0-.24.07.43.43,0,0,0-.17.56A.37.37,0,0,0,8,20.62Z" vector-effect="non-scaling-stroke"/><path fill="#7f8038" d="M8.08,22.18a.46.46,0,0,0,.25-.08.47.47,0,0,0,.21-.27.38.38,0,0,0,0-.33.39.39,0,0,0-.35-.19.38.38,0,0,0-.25.08.46.46,0,0,0-.18.6A.39.39,0,0,0,8.08,22.18Z" vector-effect="non-scaling-stroke"/><path fill="#7f8038" d="M8.34,23.63a.45.45,0,0,0,.25-.07.56.56,0,0,0,.2-.26.44.44,0,0,0,0-.32.36.36,0,0,0-.33-.19.44.44,0,0,0-.25.08.44.44,0,0,0-.17.58A.39.39,0,0,0,8.34,23.63Z" vector-effect="non-scaling-stroke"/><path fill="#7f8038" d="M8.83,25a.45.45,0,0,0,.25-.07.57.57,0,0,0,.2-.26.44.44,0,0,0,0-.32.38.38,0,0,0-.34-.19.5.5,0,0,0-.44.34.36.36,0,0,0,0,.32A.39.39,0,0,0,8.83,25Z" vector-effect="non-scaling-stroke"/><path fill="#7f8038" d="M9.49,26.21a.45.45,0,0,0,.25-.07.52.52,0,0,0,.2-.26.44.44,0,0,0,0-.32.39.39,0,0,0-.34-.18.47.47,0,0,0-.25.07.44.44,0,0,0-.16.58A.37.37,0,0,0,9.49,26.21Z" vector-effect="non-scaling-stroke"/><path fill="#7f8038" d="M10.31,27.33a.47.47,0,0,0,.25-.07.44.44,0,0,0,.16-.58.36.36,0,0,0-.33-.19.46.46,0,0,0-.25.08.43.43,0,0,0-.16.57A.36.36,0,0,0,10.31,27.33Z" vector-effect="non-scaling-stroke"/><path fill="#7f8038" d="M11.6,28.15a.43.43,0,0,0,.2-.26.4.4,0,0,0-.37-.53.5.5,0,0,0-.26.08.48.48,0,0,0-.2.27A.38.38,0,0,0,11,28a.37.37,0,0,0,.34.19A.42.42,0,0,0,11.6,28.15Z" vector-effect="non-scaling-stroke"/><path fill="#7f8038" d="M12.57,29.06a.48.48,0,0,0,.28-.08.5.5,0,0,0,.19-.64.42.42,0,0,0-.38-.21.53.53,0,0,0-.27.08.5.5,0,0,0-.19.65A.4.4,0,0,0,12.57,29.06Z" vector-effect="non-scaling-stroke"/><path fill="#7f8038" d="M14.23,29.59a.58.58,0,0,0,.22-.29.47.47,0,0,0,0-.35.42.42,0,0,0-.37-.2.57.57,0,0,0-.28.08.49.49,0,0,0-.18.64.4.4,0,0,0,.36.2A.48.48,0,0,0,14.23,29.59Z" vector-effect="non-scaling-stroke"/><path fill="#7f8038" d="M15.72,30a.52.52,0,0,0,.2-.67.45.45,0,0,0-.39-.21.47.47,0,0,0-.28.09.5.5,0,0,0-.23.29.46.46,0,0,0,0,.38.43.43,0,0,0,.38.21A.52.52,0,0,0,15.72,30Z" vector-effect="non-scaling-stroke"/><path fill="#7f8038" d="M17.18,30.1a.53.53,0,0,0,.2-.68.45.45,0,0,0-.39-.21.51.51,0,0,0-.29.08.54.54,0,0,0-.2.68.43.43,0,0,0,.38.22A.62.62,0,0,0,17.18,30.1Z" vector-effect="non-scaling-stroke"/><path fill="#7f8038" d="M18.65,30a.52.52,0,0,0,.2-.68.43.43,0,0,0-.39-.21.52.52,0,0,0-.29.09.59.59,0,0,0-.24.3.45.45,0,0,0,0,.38.42.42,0,0,0,.38.22A.57.57,0,0,0,18.65,30Z" vector-effect="non-scaling-stroke"/><path fill="#7f8038" d="M20.19,29.79a.62.62,0,0,0,.24-.33.44.44,0,0,0,0-.39.46.46,0,0,0-.41-.23.57.57,0,0,0-.31.1.55.55,0,0,0-.21.72.46.46,0,0,0,.4.23A.63.63,0,0,0,20.19,29.79Z" vector-effect="non-scaling-stroke"/><path fill="#7f8038" d="M21.8,29.33a.59.59,0,0,0,.26-.34.51.51,0,0,0,0-.42.5.5,0,0,0-.44-.24.67.67,0,0,0-.33.1.65.65,0,0,0-.26.35.51.51,0,0,0,0,.42.47.47,0,0,0,.42.24A.6.6,0,0,0,21.8,29.33Z" vector-effect="non-scaling-stroke"/><path fill="#7f8038" d="M23.53,27.77a.5.5,0,0,0-.45-.25.66.66,0,0,0-.35.11.67.67,0,0,0-.28.36.52.52,0,0,0,0,.44.5.5,0,0,0,.45.25.64.64,0,0,0,.35-.1A.63.63,0,0,0,23.53,27.77Z" vector-effect="non-scaling-stroke"/><path fill="#7f8038" d="M24.89,26.94a.52.52,0,0,0-.47-.27.7.7,0,0,0-.37.11.77.77,0,0,0-.3.39.59.59,0,0,0,0,.47.55.55,0,0,0,.47.26.76.76,0,0,0,.38-.11A.66.66,0,0,0,24.89,26.94Z" vector-effect="non-scaling-stroke"/><path fill="#7f8038" d="M26.21,26.33a.6.6,0,0,0,0-.49.55.55,0,0,0-.49-.27.77.77,0,0,0-.39.11.7.7,0,0,0-.27.9.55.55,0,0,0,.49.27.69.69,0,0,0,.39-.12A.72.72,0,0,0,26.21,26.33Z" vector-effect="non-scaling-stroke"/><path fill="#7f8038" d="M26.65,25.65a.73.73,0,0,0,.4-.13.7.7,0,0,0,.28-.92.57.57,0,0,0-.51-.29.73.73,0,0,0-.4.13.8.8,0,0,0-.33.42.62.62,0,0,0,.05.5A.57.57,0,0,0,26.65,25.65Z" vector-effect="non-scaling-stroke"/><path fill="#7f8038" d="M8.18,14.39a.5.5,0,0,0-.27.08.49.49,0,0,0-.19.63.42.42,0,0,0,.36.2.5.5,0,0,0,.27-.08.5.5,0,0,0,.19-.63A.4.4,0,0,0,8.18,14.39Z" vector-effect="non-scaling-stroke"/><path fill="#7f8038" d="M7.63,16.72a.45.45,0,0,0,.18-.6.38.38,0,0,0-.34-.19.5.5,0,0,0-.26.08.47.47,0,0,0-.18.6.39.39,0,0,0,.34.19A.42.42,0,0,0,7.63,16.72Z" vector-effect="non-scaling-stroke"/><path fill="#7f8038" d="M7.33,17.63a.4.4,0,0,0-.35-.2.47.47,0,0,0-.26.08.49.49,0,0,0-.21.28.41.41,0,0,0,0,.34.39.39,0,0,0,.35.19.42.42,0,0,0,.26-.08A.46.46,0,0,0,7.33,17.63Z" vector-effect="non-scaling-stroke"/><path fill="#7f8038" d="M7,19.17A.39.39,0,0,0,6.68,19a.52.52,0,0,0-.25.07.48.48,0,0,0-.2.27.38.38,0,0,0,.36.51.5.5,0,0,0,.26-.08.52.52,0,0,0,.2-.26A.44.44,0,0,0,7,19.17Z" vector-effect="non-scaling-stroke"/><path fill="#7f8038" d="M6.57,20.49a.49.49,0,0,0-.43.68.41.41,0,0,0,.35.19.46.46,0,0,0,.25-.08A.53.53,0,0,0,7,21a.46.46,0,0,0,0-.33A.4.4,0,0,0,6.57,20.49Z" vector-effect="non-scaling-stroke"/><path fill="#7f8038" d="M6.58,22.83a.42.42,0,0,0,.24-.07A.47.47,0,0,0,7,22.5a.41.41,0,0,0,0-.31A.37.37,0,0,0,6.66,22a.41.41,0,0,0-.24.08.43.43,0,0,0-.17.57A.39.39,0,0,0,6.58,22.83Z" vector-effect="non-scaling-stroke"/><path fill="#7f8038" d="M6.86,24.26a.4.4,0,0,0,.24-.07.42.42,0,0,0,.16-.56.36.36,0,0,0-.32-.18.4.4,0,0,0-.24.07.42.42,0,0,0-.16.56A.36.36,0,0,0,6.86,24.26Z" vector-effect="non-scaling-stroke"/><path fill="#7f8038" d="M7.33,25.61a.42.42,0,0,0,.24-.07.48.48,0,0,0,.18-.24.36.36,0,0,0-.34-.48.48.48,0,0,0-.23.07.45.45,0,0,0-.19.24.41.41,0,0,0,0,.31A.34.34,0,0,0,7.33,25.61Z" vector-effect="non-scaling-stroke"/><path fill="#7f8038" d="M8,26.86a.38.38,0,0,0,.22-.07.42.42,0,0,0,.18-.23.37.37,0,0,0,0-.29.35.35,0,0,0-.3-.17.48.48,0,0,0-.23.07.44.44,0,0,0-.17.23.33.33,0,0,0,0,.29A.34.34,0,0,0,8,26.86Z" vector-effect="non-scaling-stroke"/><path fill="#7f8038" d="M9.09,28a.55.55,0,0,0,.2-.25.43.43,0,0,0,0-.32.38.38,0,0,0-.34-.19.51.51,0,0,0-.24.07.46.46,0,0,0-.17.58.37.37,0,0,0,.33.19A.44.44,0,0,0,9.09,28Z" vector-effect="non-scaling-stroke"/><path fill="#7f8038" d="M10,29a.48.48,0,0,0,.18-.24.39.39,0,0,0,0-.3.37.37,0,0,0-.31-.17.39.39,0,0,0-.23.07.41.41,0,0,0-.15.54.35.35,0,0,0,.31.17A.48.48,0,0,0,10,29Z" vector-effect="non-scaling-stroke"/><path fill="#7f8038" d="M11.32,29.26a.38.38,0,0,0-.34-.18.42.42,0,0,0-.24.07.43.43,0,0,0-.2.26.39.39,0,0,0,0,.32.37.37,0,0,0,.33.19.5.5,0,0,0,.26-.08A.44.44,0,0,0,11.32,29.26Z" vector-effect="non-scaling-stroke"/><path fill="#7f8038" d="M12.71,30a.4.4,0,0,0-.35-.2.5.5,0,0,0-.26.08.51.51,0,0,0-.21.27.4.4,0,0,0,0,.34.39.39,0,0,0,.35.19.42.42,0,0,0,.26-.08A.46.46,0,0,0,12.71,30Z" vector-effect="non-scaling-stroke"/><path fill="#7f8038" d="M14.16,30.83a.49.49,0,0,0,0-.36.4.4,0,0,0-.37-.2.53.53,0,0,0-.27.08.5.5,0,0,0-.19.64.42.42,0,0,0,.37.21.51.51,0,0,0,.28-.09A.6.6,0,0,0,14.16,30.83Z" vector-effect="non-scaling-stroke"/><path fill="#7f8038" d="M15.57,31.16a.42.42,0,0,0,0-.35.41.41,0,0,0-.37-.21.44.44,0,0,0-.27.09.48.48,0,0,0-.19.63.41.41,0,0,0,.36.21.47.47,0,0,0,.28-.09A.56.56,0,0,0,15.57,31.16Z" vector-effect="non-scaling-stroke"/><path fill="#7f8038" d="M17,31.3a.45.45,0,0,0,0-.36.42.42,0,0,0-.37-.2.52.52,0,0,0-.49.37.45.45,0,0,0,0,.36.42.42,0,0,0,.36.2.47.47,0,0,0,.28-.09A.51.51,0,0,0,17,31.3Z" vector-effect="non-scaling-stroke"/><path fill="#7f8038" d="M18.54,30.86a.4.4,0,0,0-.37-.2.57.57,0,0,0-.28.08.5.5,0,0,0-.19.64.41.41,0,0,0,.37.21.51.51,0,0,0,.28-.09.54.54,0,0,0,.22-.29A.42.42,0,0,0,18.54,30.86Z" vector-effect="non-scaling-stroke"/><path fill="#7f8038" d="M21.74,30.17a.5.5,0,0,0-.44-.24.65.65,0,0,0-.59.44.51.51,0,0,0,0,.42.47.47,0,0,0,.42.24.59.59,0,0,0,.34-.1A.6.6,0,0,0,21.74,30.17Z" vector-effect="non-scaling-stroke"/><path fill="#7f8038" d="M23.3,29.5a.46.46,0,0,0-.43-.23.56.56,0,0,0-.33.1.65.65,0,0,0-.27.34.55.55,0,0,0,0,.42.5.5,0,0,0,.43.24.64.64,0,0,0,.33-.1A.6.6,0,0,0,23.3,29.5Z" vector-effect="non-scaling-stroke"/><path fill="#7f8038" d="M24.71,28.76a.49.49,0,0,0-.45-.24.64.64,0,0,0-.35.1.76.76,0,0,0-.28.36.55.55,0,0,0,0,.44.51.51,0,0,0,.45.26.66.66,0,0,0,.59-.92Z" vector-effect="non-scaling-stroke"/><path fill="#7f8038" d="M25.54,27.52a.68.68,0,0,0-.38.12.73.73,0,0,0-.29.38.55.55,0,0,0,0,.47.53.53,0,0,0,.47.26.7.7,0,0,0,.37-.11.66.66,0,0,0,.26-.85A.53.53,0,0,0,25.54,27.52Z" vector-effect="non-scaling-stroke"/><path fill="#7f8038" d="M26.61,27.69a.78.78,0,0,0,.39-.12.74.74,0,0,0,.31-.41.57.57,0,0,0,0-.48.55.55,0,0,0-.5-.28.68.68,0,0,0-.38.12.83.83,0,0,0-.32.4.63.63,0,0,0,.05.49A.56.56,0,0,0,26.61,27.69Z" vector-effect="non-scaling-stroke"/><path fill="#7f8038" d="M27.77,26.47a.79.79,0,0,0,.41-.13.71.71,0,0,0,.27-.92.57.57,0,0,0-.51-.29.73.73,0,0,0-.4.13.8.8,0,0,0-.33.42.67.67,0,0,0,.05.5A.57.57,0,0,0,27.77,26.47Z" vector-effect="non-scaling-stroke"/><path fill="#7f8038" d="M6.89,13.74a.5.5,0,0,0-.26.08.5.5,0,0,0-.21.27.4.4,0,0,0,0,.34.38.38,0,0,0,.34.2.46.46,0,0,0,.27-.09.47.47,0,0,0,.18-.61A.39.39,0,0,0,6.89,13.74Z" vector-effect="non-scaling-stroke"/><path fill="#7f8038" d="M6.33,16a.42.42,0,0,0,.17-.57.35.35,0,0,0-.33-.18.4.4,0,0,0-.24.07.44.44,0,0,0-.2.25.44.44,0,0,0,0,.32.36.36,0,0,0,.32.18A.43.43,0,0,0,6.33,16Z" vector-effect="non-scaling-stroke"/><path fill="#7f8038" d="M6,17a.39.39,0,0,0-.35-.19.49.49,0,0,0-.25.08.45.45,0,0,0-.2.27.42.42,0,0,0,0,.33.39.39,0,0,0,.35.19.42.42,0,0,0,.26-.08A.46.46,0,0,0,6,17Z" vector-effect="non-scaling-stroke"/><path fill="#7f8038" d="M5.62,18.81a.34.34,0,0,0,0-.31.34.34,0,0,0-.33-.18.42.42,0,0,0-.24.07.43.43,0,0,0-.16.57.36.36,0,0,0,.32.18.45.45,0,0,0,.25-.07A.46.46,0,0,0,5.62,18.81Z" vector-effect="non-scaling-stroke"/><path fill="#7f8038" d="M5.39,20a.37.37,0,0,0-.33-.18.44.44,0,0,0-.4.63.39.39,0,0,0,.33.18.55.55,0,0,0,.24-.07.47.47,0,0,0,.19-.25A.41.41,0,0,0,5.39,20Z" vector-effect="non-scaling-stroke"/><path fill="#7f8038" d="M5,21.35a.44.44,0,0,0-.25.08.45.45,0,0,0-.17.59.37.37,0,0,0,.34.19.5.5,0,0,0,.26-.08.52.52,0,0,0,.2-.26.42.42,0,0,0,0-.33A.37.37,0,0,0,5,21.35Z" vector-effect="non-scaling-stroke"/><path fill="#7f8038" d="M5.11,23.68a.46.46,0,0,0,.25-.08A.44.44,0,0,0,5.52,23a.37.37,0,0,0-.33-.19.41.41,0,0,0-.24.08.42.42,0,0,0-.16.56A.35.35,0,0,0,5.11,23.68Z" vector-effect="non-scaling-stroke"/><path fill="#7f8038" d="M5.86,24.78a.34.34,0,0,0,0-.31.36.36,0,0,0-.32-.18.48.48,0,0,0-.24.07.53.53,0,0,0-.19.25.41.41,0,0,0,0,.31.4.4,0,0,0,.56.11A.47.47,0,0,0,5.86,24.78Z" vector-effect="non-scaling-stroke"/><path fill="#7f8038" d="M5.93,26.45a.48.48,0,0,0,.23-.07.4.4,0,0,0,.15-.54A.35.35,0,0,0,6,25.66a.45.45,0,0,0-.23.07.41.41,0,0,0-.16.54A.38.38,0,0,0,5.93,26.45Z" vector-effect="non-scaling-stroke"/><path fill="#7f8038" d="M7,27.11a.36.36,0,0,0-.32-.17.46.46,0,0,0-.23.06.41.41,0,0,0-.15.54.35.35,0,0,0,.31.18.48.48,0,0,0,.23-.07A.41.41,0,0,0,7,27.11Z" vector-effect="non-scaling-stroke"/><path fill="#7f8038" d="M7.39,28.9a.48.48,0,0,0,.23-.07.42.42,0,0,0,.16-.56.36.36,0,0,0-.32-.18.4.4,0,0,0-.24.07A.55.55,0,0,0,7,28.4a.44.44,0,0,0,0,.32A.39.39,0,0,0,7.39,28.9Z" vector-effect="non-scaling-stroke"/><path fill="#7f8038" d="M8.29,29.84a.4.4,0,0,0,.24-.07.45.45,0,0,0,.19-.24.37.37,0,0,0,0-.31A.36.36,0,0,0,8.37,29a.4.4,0,0,0-.24.07.46.46,0,0,0-.19.24.41.41,0,0,0,0,.31A.36.36,0,0,0,8.29,29.84Z" vector-effect="non-scaling-stroke"/><path fill="#7f8038" d="M9.41,30.88a.44.44,0,0,0,.25-.08.44.44,0,0,0,.17-.58A.4.4,0,0,0,9.49,30a.4.4,0,0,0-.24.07.45.45,0,0,0-.17.58A.37.37,0,0,0,9.41,30.88Z" vector-effect="non-scaling-stroke"/><path fill="#7f8038" d="M10.61,31.67a.5.5,0,0,0,.26-.08.45.45,0,0,0,.2-.27A.41.41,0,0,0,11,31a.37.37,0,0,0-.35-.19.44.44,0,0,0-.25.08.46.46,0,0,0-.18.6A.4.4,0,0,0,10.61,31.67Z" vector-effect="non-scaling-stroke"/><path fill="#7f8038" d="M11.92,32.28a.39.39,0,0,0,.25-.08.46.46,0,0,0,.18-.6.39.39,0,0,0-.35-.19.5.5,0,0,0-.26.08.57.57,0,0,0-.2.26.4.4,0,0,0,0,.34A.39.39,0,0,0,11.92,32.28Z" vector-effect="non-scaling-stroke"/><path fill="#7f8038" d="M13.3,32.75a.46.46,0,0,0,.27-.09.47.47,0,0,0,.2-.26.4.4,0,0,0-.38-.54.5.5,0,0,0-.26.08.56.56,0,0,0-.21.27.49.49,0,0,0,0,.34A.4.4,0,0,0,13.3,32.75Z" vector-effect="non-scaling-stroke"/><path fill="#7f8038" d="M14.74,33a.48.48,0,0,0,.47-.36.38.38,0,0,0,0-.33.4.4,0,0,0-.35-.2.5.5,0,0,0-.26.08.51.51,0,0,0-.21.27.4.4,0,0,0,.38.54Z" vector-effect="non-scaling-stroke"/><path fill="#7f8038" d="M16.24,33.16a.53.53,0,0,0,.27-.08.49.49,0,0,0,.18-.62.41.41,0,0,0-.36-.19.42.42,0,0,0-.26.08.47.47,0,0,0-.21.27.4.4,0,0,0,0,.34A.38.38,0,0,0,16.24,33.16Z" vector-effect="non-scaling-stroke"/><path fill="#7f8038" d="M17.74,33.16a.62.62,0,0,0,.29-.09.5.5,0,0,0,.19-.66.42.42,0,0,0-.38-.21.57.57,0,0,0-.28.08.61.61,0,0,0-.23.3.41.41,0,0,0,0,.36A.4.4,0,0,0,17.74,33.16Z" vector-effect="non-scaling-stroke"/><path fill="#7f8038" d="M19.3,33a.63.63,0,0,0,.32-.1.58.58,0,0,0,.22-.73.48.48,0,0,0-.42-.23.56.56,0,0,0-.31.09.58.58,0,0,0-.22.74A.47.47,0,0,0,19.3,33Z" vector-effect="non-scaling-stroke"/><path fill="#7f8038" d="M19.59,31.48a.52.52,0,0,0,.31-.1.54.54,0,0,0,.2-.7.44.44,0,0,0-.4-.22.55.55,0,0,0-.3.09.57.57,0,0,0-.21.71A.47.47,0,0,0,19.59,31.48Z" vector-effect="non-scaling-stroke"/><path fill="#7f8038" d="M20.93,32.59a.59.59,0,0,0,.33-.11.59.59,0,0,0,.23-.76.5.5,0,0,0-.44-.25.67.67,0,0,0-.33.1.6.6,0,0,0-.23.77A.49.49,0,0,0,20.93,32.59Z" vector-effect="non-scaling-stroke"/><path fill="#7f8038" d="M22.48,32a.63.63,0,0,0,.34-.1.61.61,0,0,0,.23-.79.49.49,0,0,0-.44-.24.59.59,0,0,0-.34.1.67.67,0,0,0-.27.35.49.49,0,0,0,0,.43A.48.48,0,0,0,22.48,32Z" vector-effect="non-scaling-stroke"/><path fill="#7f8038" d="M24,30.27a.67.67,0,0,0-.34.1.62.62,0,0,0-.24.79.53.53,0,0,0,.45.25.67.67,0,0,0,.61-.47.5.5,0,0,0,0-.43A.49.49,0,0,0,24,30.27Z" vector-effect="non-scaling-stroke"/><path fill="#7f8038" d="M25.22,30.62a.66.66,0,0,0,.36-.11.65.65,0,0,0,.25-.83.51.51,0,0,0-.47-.25.66.66,0,0,0-.6.93A.53.53,0,0,0,25.22,30.62Z" vector-effect="non-scaling-stroke"/><path fill="#7f8038" d="M27.18,28.68a.54.54,0,0,0-.48-.27.76.76,0,0,0-.38.11.68.68,0,0,0-.26.87.55.55,0,0,0,.48.27.68.68,0,0,0,.38-.12A.67.67,0,0,0,27.18,28.68Z" vector-effect="non-scaling-stroke"/><path fill="#7f8038" d="M27.72,28.57a.75.75,0,0,0,.4-.12.78.78,0,0,0,.31-.41.62.62,0,0,0,0-.5.58.58,0,0,0-.5-.28.73.73,0,0,0-.4.13.7.7,0,0,0-.28.9A.59.59,0,0,0,27.72,28.57Z" vector-effect="non-scaling-stroke"/><path fill="#7f8038" d="M29.32,27.17a.88.88,0,0,0,.33-.43.64.64,0,0,0,0-.51.57.57,0,0,0-.52-.29.78.78,0,0,0-.41.12.81.81,0,0,0-.33.43.64.64,0,0,0,0,.51.6.6,0,0,0,.52.29A.79.79,0,0,0,29.32,27.17Z" vector-effect="non-scaling-stroke"/><path fill="#7f8038" d="M5.62,13.1a.47.47,0,0,0-.25.07.46.46,0,0,0-.17.59.37.37,0,0,0,.33.19.5.5,0,0,0,.26-.08A.45.45,0,0,0,6,13.28.38.38,0,0,0,5.62,13.1Z" vector-effect="non-scaling-stroke"/><path fill="#7f8038" d="M4.65,14.69a.4.4,0,0,0-.16.55.35.35,0,0,0,.31.18.45.45,0,0,0,.4-.63.35.35,0,0,0-.31-.18A.41.41,0,0,0,4.65,14.69Z" vector-effect="non-scaling-stroke"/><path fill="#7f8038" d="M4.06,16.17a.44.44,0,0,0-.16.58.36.36,0,0,0,.33.19.49.49,0,0,0,.25-.08.43.43,0,0,0,.16-.57.36.36,0,0,0-.33-.19A.55.55,0,0,0,4.06,16.17Z" vector-effect="non-scaling-stroke"/><path fill="#7f8038" d="M4.23,18.14a.4.4,0,0,0,0-.32.39.39,0,0,0-.33-.18.48.48,0,0,0-.24.07.45.45,0,0,0-.16.57.38.38,0,0,0,.32.18A.41.41,0,0,0,4,18.38.41.41,0,0,0,4.23,18.14Z" vector-effect="non-scaling-stroke"/><path fill="#7f8038" d="M3.61,19.16a.5.5,0,0,0-.45.34.38.38,0,0,0,0,.33.38.38,0,0,0,.34.19A.5.5,0,0,0,4,19.68a.38.38,0,0,0,0-.33A.4.4,0,0,0,3.61,19.16Z" vector-effect="non-scaling-stroke"/><path fill="#7f8038" d="M3.42,21.53a.39.39,0,0,0,.23-.07.43.43,0,0,0,.19-.25.37.37,0,0,0,0-.31.36.36,0,0,0-.32-.18.48.48,0,0,0-.24.07.44.44,0,0,0-.16.56A.39.39,0,0,0,3.42,21.53Z" vector-effect="non-scaling-stroke"/><path fill="#7f8038" d="M3.46,23A.48.48,0,0,0,3.69,23a.48.48,0,0,0,.18-.24.37.37,0,0,0,0-.29.35.35,0,0,0-.31-.18.48.48,0,0,0-.23.07.5.5,0,0,0-.18.23.39.39,0,0,0,0,.3A.35.35,0,0,0,3.46,23Z" vector-effect="non-scaling-stroke"/><path fill="#7f8038" d="M3.66,24.48a.43.43,0,0,0,.22-.06.46.46,0,0,0,.17-.22.37.37,0,0,0,0-.29.34.34,0,0,0-.3-.16.42.42,0,0,0-.21.06.38.38,0,0,0-.14.5A.32.32,0,0,0,3.66,24.48Z" vector-effect="non-scaling-stroke"/><path fill="#7f8038" d="M4,25.94a.4.4,0,0,0,.23-.08.41.41,0,0,0,.15-.54.36.36,0,0,0-.32-.18.48.48,0,0,0-.23.07.43.43,0,0,0-.18.24.35.35,0,0,0,0,.3A.35.35,0,0,0,4,25.94Z" vector-effect="non-scaling-stroke"/><path fill="#7f8038" d="M4.53,27.29a.39.39,0,0,0,.23-.07A.46.46,0,0,0,4.94,27a.41.41,0,0,0,0-.31.39.39,0,0,0-.33-.18.44.44,0,0,0-.4.3.34.34,0,0,0,0,.31A.36.36,0,0,0,4.53,27.29Z" vector-effect="non-scaling-stroke"/><path fill="#7f8038" d="M5.18,28.56a.48.48,0,0,0,.23-.07.4.4,0,0,0,.17-.23.36.36,0,0,0,0-.29.33.33,0,0,0-.31-.18.41.41,0,0,0-.37.59A.35.35,0,0,0,5.18,28.56Z" vector-effect="non-scaling-stroke"/><path fill="#7f8038" d="M6,29.7a.47.47,0,0,0,.22-.07.48.48,0,0,0,.17-.23.37.37,0,0,0,0-.29A.34.34,0,0,0,6,28.94a.43.43,0,0,0-.22.06.39.39,0,0,0-.14.52A.35.35,0,0,0,6,29.7Z" vector-effect="non-scaling-stroke"/><path fill="#7f8038" d="M7.05,30.68a.41.41,0,0,0,.19-.24.42.42,0,0,0,0-.31A.4.4,0,0,0,6.65,30a.42.42,0,0,0-.16.55.37.37,0,0,0,.33.18A.39.39,0,0,0,7.05,30.68Z" vector-effect="non-scaling-stroke"/><path fill="#7f8038" d="M8.27,31.39a.36.36,0,0,0,0-.32.36.36,0,0,0-.33-.19.4.4,0,0,0-.24.07.43.43,0,0,0-.16.56.38.38,0,0,0,.33.2.41.41,0,0,0,.24-.08A.45.45,0,0,0,8.27,31.39Z" vector-effect="non-scaling-stroke"/><path fill="#7f8038" d="M9.45,32a.38.38,0,0,0-.32-.18.48.48,0,0,0-.23.07.43.43,0,0,0-.18.24.39.39,0,0,0,0,.3.35.35,0,0,0,.31.18.55.55,0,0,0,.24-.07A.42.42,0,0,0,9.45,32Z" vector-effect="non-scaling-stroke"/><path fill="#7f8038" d="M10.67,32.7a.35.35,0,0,0-.33-.19.43.43,0,0,0-.24.08.43.43,0,0,0-.16.56.39.39,0,0,0,.33.18.42.42,0,0,0,.24-.07A.47.47,0,0,0,10.7,33,.34.34,0,0,0,10.67,32.7Z" vector-effect="non-scaling-stroke"/><path fill="#7f8038" d="M12,33.24a.39.39,0,0,0-.35-.19.43.43,0,0,0-.25.07.45.45,0,0,0-.17.59.37.37,0,0,0,.34.2.44.44,0,0,0,.25-.08.49.49,0,0,0,.21-.26A.42.42,0,0,0,12,33.24Z" vector-effect="non-scaling-stroke"/><path fill="#7f8038" d="M13.43,33.64a.39.39,0,0,0-.35-.19.44.44,0,0,0-.25.08.45.45,0,0,0-.18.59.4.4,0,0,0,.35.2.5.5,0,0,0,.26-.08A.47.47,0,0,0,13.43,33.64Z" vector-effect="non-scaling-stroke"/><path fill="#7f8038" d="M14.9,33.88a.38.38,0,0,0-.34-.19.46.46,0,0,0-.25.08.44.44,0,0,0-.17.58.37.37,0,0,0,.33.19.42.42,0,0,0,.26-.08A.45.45,0,0,0,14.9,33.88Z" vector-effect="non-scaling-stroke"/><path fill="#7f8038" d="M16.43,34a.39.39,0,0,0-.36-.2.5.5,0,0,0-.26.08.47.47,0,0,0-.18.62.39.39,0,0,0,.35.19.45.45,0,0,0,.27-.08.47.47,0,0,0,.21-.27A.4.4,0,0,0,16.43,34Z" vector-effect="non-scaling-stroke"/><path fill="#7f8038" d="M17.91,33.94a.42.42,0,0,0-.38-.21.47.47,0,0,0-.28.09.5.5,0,0,0-.19.66.41.41,0,0,0,.37.21.52.52,0,0,0,.29-.09A.5.5,0,0,0,17.91,33.94Z" vector-effect="non-scaling-stroke"/><path fill="#7f8038" d="M19.5,34.12a.46.46,0,0,0,0-.38.45.45,0,0,0-.4-.22.53.53,0,0,0-.3.09.55.55,0,0,0-.25.31.48.48,0,0,0,0,.39.44.44,0,0,0,.39.22.56.56,0,0,0,.31-.09A.64.64,0,0,0,19.5,34.12Z" vector-effect="non-scaling-stroke"/><path fill="#7f8038" d="M21.17,33.35a.48.48,0,0,0-.43-.23.55.55,0,0,0-.32.1.58.58,0,0,0-.22.75.47.47,0,0,0,.42.24.67.67,0,0,0,.33-.1A.59.59,0,0,0,21.17,33.35Z" vector-effect="non-scaling-stroke"/><path fill="#7f8038" d="M22.73,32.82a.5.5,0,0,0-.45-.24.61.61,0,0,0-.34.1.65.65,0,0,0-.27.36.5.5,0,0,0,0,.43.49.49,0,0,0,.44.25.66.66,0,0,0,.35-.11A.61.61,0,0,0,22.73,32.82Z" vector-effect="non-scaling-stroke"/><path fill="#7f8038" d="M24.25,32.62a.56.56,0,0,0,0-.44.53.53,0,0,0-.46-.25.6.6,0,0,0-.34.11.62.62,0,0,0-.25.8.52.52,0,0,0,.45.25A.68.68,0,0,0,24,33,.64.64,0,0,0,24.25,32.62Z" vector-effect="non-scaling-stroke"/><path fill="#7f8038" d="M25.64,31.5a.53.53,0,0,0-.46-.25.6.6,0,0,0-.34.11.63.63,0,0,0-.28.36.52.52,0,0,0,0,.44.49.49,0,0,0,.45.25.64.64,0,0,0,.35-.1A.63.63,0,0,0,25.64,31.5Z" vector-effect="non-scaling-stroke"/><path fill="#7f8038" d="M26.36,31.57a.63.63,0,0,0,.37-.12.65.65,0,0,0,.29-.38.56.56,0,0,0,0-.46.55.55,0,0,0-.47-.26.7.7,0,0,0-.37.11.8.8,0,0,0-.3.38.6.6,0,0,0,0,.46A.53.53,0,0,0,26.36,31.57Z" vector-effect="non-scaling-stroke"/><path fill="#7f8038" d="M27.66,30.55a.71.71,0,0,0,.39-.12.79.79,0,0,0,.3-.4.57.57,0,0,0,0-.48.55.55,0,0,0-.49-.28.77.77,0,0,0-.38.12.68.68,0,0,0-.27.88A.54.54,0,0,0,27.66,30.55Z" vector-effect="non-scaling-stroke"/><path fill="#7f8038" d="M28.89,29.45a.72.72,0,0,0,.4-.12.8.8,0,0,0,.33-.42.66.66,0,0,0-.05-.5.55.55,0,0,0-.51-.29.72.72,0,0,0-.4.12.8.8,0,0,0-.33.42.64.64,0,0,0,.05.51A.58.58,0,0,0,28.89,29.45Z" vector-effect="non-scaling-stroke"/><path fill="#7f8038" d="M30.05,28.16a.83.83,0,0,0,.42-.13.87.87,0,0,0,.34-.44.67.67,0,0,0,0-.52.6.6,0,0,0-.53-.29.81.81,0,0,0-.42.12.8.8,0,0,0-.33.44.63.63,0,0,0,0,.52A.59.59,0,0,0,30.05,28.16Z" vector-effect="non-scaling-stroke"/><path fill="#7f8038" d="M3.92,12.73a.4.4,0,0,0,0,.32.37.37,0,0,0,.32.18.44.44,0,0,0,.25-.08.49.49,0,0,0,.2-.25.44.44,0,0,0,0-.32.39.39,0,0,0-.33-.18.48.48,0,0,0-.24.07A.5.5,0,0,0,3.92,12.73Z" vector-effect="non-scaling-stroke"/><path fill="#7f8038" d="M3.62,13.91A.34.34,0,0,0,3.4,14a.5.5,0,0,0-.19.24.36.36,0,0,0,0,.29.35.35,0,0,0,.31.18.4.4,0,0,0,.23-.08A.41.41,0,0,0,4,14.38a.39.39,0,0,0,0-.3A.35.35,0,0,0,3.62,13.91Z" vector-effect="non-scaling-stroke"/><path fill="#7f8038" d="M3.18,16.1a.48.48,0,0,0,.18-.24.32.32,0,0,0,0-.3A.34.34,0,0,0,3,15.38a.55.55,0,0,0-.24.07.42.42,0,0,0-.15.55.34.34,0,0,0,.31.17A.44.44,0,0,0,3.18,16.1Z" vector-effect="non-scaling-stroke"/><path fill="#7f8038" d="M2.56,18.89a.41.41,0,0,0,0-.31.38.38,0,0,0-.32-.18.48.48,0,0,0-.24.07.45.45,0,0,0-.19.24.41.41,0,0,0,0,.31.35.35,0,0,0,.32.19.51.51,0,0,0,.24-.07A.47.47,0,0,0,2.56,18.89Z" vector-effect="non-scaling-stroke"/><path fill="#7f8038" d="M1.93,20.71a.39.39,0,0,0,.23-.07.4.4,0,0,0,.15-.53A.37.37,0,0,0,2,19.94a.39.39,0,0,0-.23.07.4.4,0,0,0-.14.53A.33.33,0,0,0,1.93,20.71Z" vector-effect="non-scaling-stroke"/><path fill="#7f8038" d="M1.54,22.06a.39.39,0,0,0,.34.19.42.42,0,0,0,.24-.07.44.44,0,0,0,.15-.57.37.37,0,0,0-.34-.19.48.48,0,0,0-.23.07A.45.45,0,0,0,1.54,22.06Z" vector-effect="non-scaling-stroke"/><path fill="#7f8038" d="M2,23.72a.39.39,0,0,0,.23-.07.41.41,0,0,0,.15-.54A.39.39,0,0,0,2,22.93a.36.36,0,0,0-.22.07.41.41,0,0,0-.18.23.42.42,0,0,0,0,.31A.37.37,0,0,0,2,23.72Z" vector-effect="non-scaling-stroke"/><path fill="#7f8038" d="M2.41,25.09a.4.4,0,0,0,.14-.52.38.38,0,0,0-.32-.18.44.44,0,0,0-.22.07.41.41,0,0,0-.17.22.39.39,0,0,0,0,.3.36.36,0,0,0,.32.18A.38.38,0,0,0,2.41,25.09Z" vector-effect="non-scaling-stroke"/><path fill="#7f8038" d="M2.92,26a.34.34,0,0,0-.31-.17.46.46,0,0,0-.22.06.4.4,0,0,0-.13.52.36.36,0,0,0,.52.1A.39.39,0,0,0,2.92,26Z" vector-effect="non-scaling-stroke"/><path fill="#7f8038" d="M3.1,27.2a.4.4,0,0,0-.21.07.47.47,0,0,0-.16.21.34.34,0,0,0,0,.28.33.33,0,0,0,.3.17.42.42,0,0,0,.21-.06.38.38,0,0,0,.13-.5A.35.35,0,0,0,3.1,27.2Z" vector-effect="non-scaling-stroke"/><path fill="#7f8038" d="M3.89,29.13a.36.36,0,0,0,.16-.22.34.34,0,0,0,0-.28.37.37,0,0,0-.31-.17.36.36,0,0,0-.2.06.36.36,0,0,0-.16.21.3.3,0,0,0,0,.28.35.35,0,0,0,.3.18A.37.37,0,0,0,3.89,29.13Z" vector-effect="non-scaling-stroke"/><path fill="#7f8038" d="M4.78,29.85a.35.35,0,0,0-.31-.18.47.47,0,0,0-.2.06.36.36,0,0,0-.16.22.31.31,0,0,0,0,.28.34.34,0,0,0,.3.17.39.39,0,0,0,.21-.06A.38.38,0,0,0,4.78,29.85Z" vector-effect="non-scaling-stroke"/><path fill="#7f8038" d="M5.37,30.81a.43.43,0,0,0-.22.06.38.38,0,0,0-.14.51.35.35,0,0,0,.31.18.41.41,0,0,0,.22-.07A.4.4,0,0,0,5.68,31,.39.39,0,0,0,5.37,30.81Z" vector-effect="non-scaling-stroke"/><path fill="#7f8038" d="M6.31,31.72a.34.34,0,0,0-.22.07.39.39,0,0,0-.14.52.35.35,0,0,0,.31.18.34.34,0,0,0,.22-.07.41.41,0,0,0,.17-.22.39.39,0,0,0,0-.3A.35.35,0,0,0,6.31,31.72Z" vector-effect="non-scaling-stroke"/><path fill="#7f8038" d="M7.39,32.6a.44.44,0,0,0-.22.07A.44.44,0,0,0,7,32.9a.41.41,0,0,0,0,.31.35.35,0,0,0,.32.18.46.46,0,0,0,.23-.06.41.41,0,0,0,.15-.54A.38.38,0,0,0,7.39,32.6Z" vector-effect="non-scaling-stroke"/><path fill="#7f8038" d="M8.61,33.43a.41.41,0,0,0-.22.07.38.38,0,0,0-.14.51.34.34,0,0,0,.3.17.43.43,0,0,0,.22-.06.38.38,0,0,0,.14-.51A.34.34,0,0,0,8.61,33.43Z" vector-effect="non-scaling-stroke"/><path fill="#7f8038" d="M9.9,34.09a.33.33,0,0,0-.21.07.41.41,0,0,0-.17.22.37.37,0,0,0,0,.29.33.33,0,0,0,.3.17.36.36,0,0,0,.22-.07.37.37,0,0,0,.14-.5A.35.35,0,0,0,9.9,34.09Z" vector-effect="non-scaling-stroke"/><path fill="#7f8038" d="M11.27,34.58a.39.39,0,0,0-.23.07.42.42,0,0,0-.16.56.36.36,0,0,0,.32.18.42.42,0,0,0,.24-.07.43.43,0,0,0,.16-.56A.37.37,0,0,0,11.27,34.58Z" vector-effect="non-scaling-stroke"/><path fill="#7f8038" d="M12.74,35a.41.41,0,0,0-.24.08.42.42,0,0,0-.16.56.37.37,0,0,0,.32.18.45.45,0,0,0,.25-.07.43.43,0,0,0,.16-.56A.36.36,0,0,0,12.74,35Z" vector-effect="non-scaling-stroke"/><path fill="#7f8038" d="M14.22,35.21a.45.45,0,0,0-.25.07.44.44,0,0,0-.16.57.37.37,0,0,0,.33.19.39.39,0,0,0,.25-.08.43.43,0,0,0,.16-.57A.37.37,0,0,0,14.22,35.21Z" vector-effect="non-scaling-stroke"/><path fill="#7f8038" d="M15.74,35.33a.45.45,0,0,0-.25.07.46.46,0,0,0-.17.58.38.38,0,0,0,.34.19.5.5,0,0,0,.44-.34.36.36,0,0,0,0-.32A.37.37,0,0,0,15.74,35.33Z" vector-effect="non-scaling-stroke"/><path fill="#7f8038" d="M17.25,35.31a.45.45,0,0,0-.26.08.47.47,0,0,0-.19.61.39.39,0,0,0,.35.2.5.5,0,0,0,.27-.08.47.47,0,0,0,.18-.62A.39.39,0,0,0,17.25,35.31Z" vector-effect="non-scaling-stroke"/><path fill="#7f8038" d="M18.83,35.12a.5.5,0,0,0-.27.08.58.58,0,0,0-.22.29.47.47,0,0,0,0,.35.43.43,0,0,0,.36.2A.49.49,0,0,0,19,36a.48.48,0,0,0,.18-.63A.41.41,0,0,0,18.83,35.12Z" vector-effect="non-scaling-stroke"/><path fill="#7f8038" d="M20.36,34.76a.59.59,0,0,0-.31.09.56.56,0,0,0-.21.71.47.47,0,0,0,.41.22.55.55,0,0,0,.3-.09.6.6,0,0,0,.25-.32.53.53,0,0,0,0-.39A.45.45,0,0,0,20.36,34.76Z" vector-effect="non-scaling-stroke"/><path fill="#7f8038" d="M21.85,34.31a.62.62,0,0,0-.32.09.58.58,0,0,0-.22.75.47.47,0,0,0,.42.24.56.56,0,0,0,.33-.1.58.58,0,0,0,.22-.75A.46.46,0,0,0,21.85,34.31Z" vector-effect="non-scaling-stroke"/><path fill="#7f8038" d="M23.4,33.72a.55.55,0,0,0-.32.1.58.58,0,0,0-.23.76.5.5,0,0,0,.43.24.58.58,0,0,0,.33-.1.65.65,0,0,0,.27-.34.55.55,0,0,0,0-.42A.5.5,0,0,0,23.4,33.72Z" vector-effect="non-scaling-stroke"/><path fill="#7f8038" d="M24.9,33a.56.56,0,0,0-.33.1.59.59,0,0,0-.26.34.51.51,0,0,0,0,.42.5.5,0,0,0,.43.24.56.56,0,0,0,.33-.1.62.62,0,0,0,.27-.35A.48.48,0,0,0,24.9,33Z" vector-effect="non-scaling-stroke"/><path fill="#7f8038" d="M26.29,32.25a.59.59,0,0,0-.34.1.64.64,0,0,0-.28.37.56.56,0,0,0,0,.44.5.5,0,0,0,.45.25.63.63,0,0,0,.35-.11.62.62,0,0,0,.25-.8A.51.51,0,0,0,26.29,32.25Z" vector-effect="non-scaling-stroke"/><path fill="#7f8038" d="M27.64,31.3a.69.69,0,0,0-.62,1,.53.53,0,0,0,.47.27.68.68,0,0,0,.38-.12.66.66,0,0,0,.25-.85A.54.54,0,0,0,27.64,31.3Z" vector-effect="non-scaling-stroke"/><path fill="#7f8038" d="M28.82,31.44a.71.71,0,0,0,.39-.12.69.69,0,0,0,.26-.88.56.56,0,0,0-.49-.28.66.66,0,0,0-.38.12.68.68,0,0,0-.27.88A.54.54,0,0,0,28.82,31.44Z" vector-effect="non-scaling-stroke"/><path fill="#7f8038" d="M30,30.31a.72.72,0,0,0,.4-.12.71.71,0,0,0,.28-.92A.57.57,0,0,0,30.2,29,.75.75,0,0,0,29.52,30,.56.56,0,0,0,30,30.31Z" vector-effect="non-scaling-stroke"/><path fill="#7f8038" d="M31.2,29a.71.71,0,0,0,.41-.13.74.74,0,0,0,.3-.95.6.6,0,0,0-.53-.3.7.7,0,0,0-.42.13.74.74,0,0,0-.29,1A.59.59,0,0,0,31.2,29Z" vector-effect="non-scaling-stroke"/><path fill="#7f8038" d="M3,12.59a.39.39,0,0,0,.23-.07.55.55,0,0,0,.2-.25.41.41,0,0,0,0-.31.36.36,0,0,0-.32-.17.4.4,0,0,0-.24.07.42.42,0,0,0-.16.55A.36.36,0,0,0,3,12.59Z" vector-effect="non-scaling-stroke"/><path fill="#7f8038" d="M2.27,14A.42.42,0,0,0,2.51,14a.49.49,0,0,0,.2-.25.43.43,0,0,0,0-.32.37.37,0,0,0-.33-.18.44.44,0,0,0-.41.64A.39.39,0,0,0,2.27,14Z" vector-effect="non-scaling-stroke"/><path fill="#7f8038" d="M1.64,15.49a.48.48,0,0,0,.23-.07A.41.41,0,0,0,2,14.9a.34.34,0,0,0-.31-.17.41.41,0,0,0-.4.3.35.35,0,0,0,.33.46Z" vector-effect="non-scaling-stroke"/><path fill="#7f8038" d="M1.13,17A.42.42,0,0,0,1.37,17a.47.47,0,0,0,.19-.25.4.4,0,0,0,0-.32.37.37,0,0,0-.33-.18.48.48,0,0,0-.24.07.47.47,0,0,0-.19.25.44.44,0,0,0,0,.32A.39.39,0,0,0,1.13,17Z" vector-effect="non-scaling-stroke"/><path fill="#7f8038" d="M.74,18.52A.39.39,0,0,0,1,18.45a.4.4,0,0,0,.15-.53.34.34,0,0,0-.31-.17.39.39,0,0,0-.23.07.41.41,0,0,0-.15.53A.36.36,0,0,0,.74,18.52Z" vector-effect="non-scaling-stroke"/><path fill="#7f8038" d="M.49,20A.38.38,0,0,0,.71,20a.38.38,0,0,0,.14-.51.33.33,0,0,0-.3-.17.4.4,0,0,0-.22.06.42.42,0,0,0-.18.23.37.37,0,0,0,0,.29A.34.34,0,0,0,.49,20Z" vector-effect="non-scaling-stroke"/><path fill="#7f8038" d="M.36,21.57a.4.4,0,0,0,.22-.06.42.42,0,0,0,.17-.23.41.41,0,0,0,0-.29.34.34,0,0,0-.32-.18.4.4,0,0,0-.22.06.39.39,0,0,0-.14.52A.33.33,0,0,0,.36,21.57Z" vector-effect="non-scaling-stroke"/><path fill="#7f8038" d="M.56,23a.39.39,0,0,0,.17-.21.39.39,0,0,0,0-.28.35.35,0,0,0-.31-.18.36.36,0,0,0-.2.06A.43.43,0,0,0,0,22.6a.33.33,0,0,0,0,.28.34.34,0,0,0,.3.18A.34.34,0,0,0,.56,23Z" vector-effect="non-scaling-stroke"/><path fill="#7f8038" d="M.81,24a.31.31,0,0,0-.28-.16.42.42,0,0,0-.21.06.37.37,0,0,0-.12.47.32.32,0,0,0,.29.17.36.36,0,0,0,.2-.06A.35.35,0,0,0,.81,24Z" vector-effect="non-scaling-stroke"/><path fill="#7f8038" d="M1.12,25.73a.35.35,0,0,0,0-.3.36.36,0,0,0-.32-.18.4.4,0,0,0-.21.07.41.41,0,0,0-.17.22.38.38,0,0,0,0,.28A.37.37,0,0,0,.75,26,.39.39,0,0,0,1,25.94.42.42,0,0,0,1.12,25.73Z" vector-effect="non-scaling-stroke"/><path fill="#7f8038" d="M1.47,26.83a.37.37,0,0,0-.31-.17.36.36,0,0,0-.2.06.36.36,0,0,0-.16.21.41.41,0,0,0,0,.29.35.35,0,0,0,.31.18.4.4,0,0,0,.21-.07A.38.38,0,0,0,1.47,26.83Z" vector-effect="non-scaling-stroke"/><path fill="#7f8038" d="M2,28.18a.33.33,0,0,0-.3-.17.34.34,0,0,0-.2.06.39.39,0,0,0-.17.21.34.34,0,0,0,0,.28.35.35,0,0,0,.31.18.42.42,0,0,0,.21-.06A.37.37,0,0,0,2,28.18Z" vector-effect="non-scaling-stroke"/><path fill="#7f8038" d="M3.9,31.6a.43.43,0,0,0-.22.06.4.4,0,0,0-.16.22.33.33,0,0,0,0,.29.35.35,0,0,0,.32.19.39.39,0,0,0,.23-.07.38.38,0,0,0,.12-.52A.36.36,0,0,0,3.9,31.6Z" vector-effect="non-scaling-stroke"/><path fill="#7f8038" d="M4.86,32.63a.33.33,0,0,0-.21.07.39.39,0,0,0-.17.21.38.38,0,0,0,0,.28.35.35,0,0,0,.32.19A.43.43,0,0,0,5,33.32a.39.39,0,0,0,.13-.51A.37.37,0,0,0,4.86,32.63Z" vector-effect="non-scaling-stroke"/><path fill="#7f8038" d="M5.92,33.56a.4.4,0,0,0-.22.06.4.4,0,0,0-.14.53.38.38,0,0,0,.32.18.4.4,0,0,0,.21-.07.38.38,0,0,0,.15-.52A.38.38,0,0,0,5.92,33.56Z" vector-effect="non-scaling-stroke"/><path fill="#7f8038" d="M7.07,34.37a.39.39,0,0,0-.23.07A.42.42,0,0,0,6.7,35a.38.38,0,0,0,.32.18.42.42,0,0,0,.24-.07.43.43,0,0,0,.14-.55A.39.39,0,0,0,7.07,34.37Z" vector-effect="non-scaling-stroke"/><path fill="#7f8038" d="M8.3,35.11a.43.43,0,0,0-.22.06.39.39,0,0,0-.14.52.35.35,0,0,0,.31.18.39.39,0,0,0,.23-.07.4.4,0,0,0,.14-.52A.36.36,0,0,0,8.3,35.11Z" vector-effect="non-scaling-stroke"/><path fill="#7f8038" d="M9.61,35.71a.4.4,0,0,0-.22.06.4.4,0,0,0-.15.52.36.36,0,0,0,.32.19.44.44,0,0,0,.22-.07.5.5,0,0,0,.18-.23.39.39,0,0,0,0-.3A.36.36,0,0,0,9.61,35.71Z" vector-effect="non-scaling-stroke"/><path fill="#7f8038" d="M11,36.2a.4.4,0,0,0-.22.06.44.44,0,0,0-.18.23.37.37,0,0,0,0,.29.34.34,0,0,0,.3.17.41.41,0,0,0,.37-.59A.34.34,0,0,0,11,36.2Z" vector-effect="non-scaling-stroke"/><path fill="#7f8038" d="M12.42,36.53a.4.4,0,0,0-.24.07.41.41,0,0,0-.15.55.35.35,0,0,0,.32.19.46.46,0,0,0,.24-.08.41.41,0,0,0,.15-.55A.36.36,0,0,0,12.42,36.53Z" vector-effect="non-scaling-stroke"/><path fill="#7f8038" d="M13.89,36.75a.43.43,0,0,0-.24.08.42.42,0,0,0-.16.56.36.36,0,0,0,.33.19.46.46,0,0,0,.24-.08.42.42,0,0,0,.16-.56A.36.36,0,0,0,13.89,36.75Z" vector-effect="non-scaling-stroke"/><path fill="#7f8038" d="M15.4,36.87a.48.48,0,0,0-.24.07.53.53,0,0,0-.19.25.42.42,0,0,0,0,.31.37.37,0,0,0,.32.18.43.43,0,0,0,.24-.08.45.45,0,0,0,.19-.24.41.41,0,0,0,0-.31A.36.36,0,0,0,15.4,36.87Z" vector-effect="non-scaling-stroke"/><path fill="#7f8038" d="M16.93,36.82a.45.45,0,0,0-.25.07.56.56,0,0,0-.21.27.46.46,0,0,0,0,.33.4.4,0,0,0,.35.2.5.5,0,0,0,.26-.08.54.54,0,0,0,.2-.27.39.39,0,0,0-.38-.52Z" vector-effect="non-scaling-stroke"/><path fill="#7f8038" d="M18.48,36.66a.5.5,0,0,0-.26.08.48.48,0,0,0-.18.61.39.39,0,0,0,.35.19.42.42,0,0,0,.26-.08.45.45,0,0,0,.18-.6A.37.37,0,0,0,18.48,36.66Z" vector-effect="non-scaling-stroke"/><path fill="#7f8038" d="M20,36.36a.53.53,0,0,0-.27.08.51.51,0,0,0-.2.65.44.44,0,0,0,.37.21.52.52,0,0,0,.29-.09.51.51,0,0,0,.19-.65A.42.42,0,0,0,20,36.36Z" vector-effect="non-scaling-stroke"/><path fill="#7f8038" d="M21.58,35.93a.48.48,0,0,0-.29.09.54.54,0,0,0-.21.69.45.45,0,0,0,.39.21.55.55,0,0,0,.3-.09.53.53,0,0,0,.2-.69A.45.45,0,0,0,21.58,35.93Z" vector-effect="non-scaling-stroke"/><path fill="#7f8038" d="M23.11,35.37a.53.53,0,0,0-.32.1.58.58,0,0,0-.22.73.47.47,0,0,0,.42.24.66.66,0,0,0,.32-.1.57.57,0,0,0,.21-.74A.46.46,0,0,0,23.11,35.37Z" vector-effect="non-scaling-stroke"/><path fill="#7f8038" d="M24.6,34.73a.62.62,0,0,0-.32.09.68.68,0,0,0-.26.34.53.53,0,0,0,0,.41.47.47,0,0,0,.41.23.56.56,0,0,0,.33-.1.7.7,0,0,0,.26-.33A.52.52,0,0,0,25,35,.46.46,0,0,0,24.6,34.73Z" vector-effect="non-scaling-stroke"/><path fill="#7f8038" d="M26,34a.57.57,0,0,0-.34.1.6.6,0,0,0-.23.78.48.48,0,0,0,.43.24.59.59,0,0,0,.34-.1.61.61,0,0,0,.24-.78A.5.5,0,0,0,26,34Z" vector-effect="non-scaling-stroke"/><path fill="#7f8038" d="M27.35,33.15a.63.63,0,0,0-.35.11.7.7,0,0,0-.29.37.54.54,0,0,0,0,.45.52.52,0,0,0,.46.26.69.69,0,0,0,.36-.11.7.7,0,0,0,.29-.37.58.58,0,0,0,0-.45A.53.53,0,0,0,27.35,33.15Z" vector-effect="non-scaling-stroke"/><path fill="#7f8038" d="M28.73,32.17a.63.63,0,0,0-.37.12.68.68,0,0,0-.3.39.55.55,0,0,0,0,.47.53.53,0,0,0,.48.27.7.7,0,0,0,.37-.11.67.67,0,0,0,.26-.87A.53.53,0,0,0,28.73,32.17Z" vector-effect="non-scaling-stroke"/><path fill="#7f8038" d="M30.1,31a.72.72,0,0,0-.4.12.71.71,0,0,0-.27.9.56.56,0,0,0,.5.28.75.75,0,0,0,.4-.12.79.79,0,0,0,.31-.41.63.63,0,0,0,0-.49A.58.58,0,0,0,30.1,31Z" vector-effect="non-scaling-stroke"/><path fill="#7f8038" d="M31.33,29.84a.78.78,0,0,0-.41.12.72.72,0,0,0-.28.94.58.58,0,0,0,.52.3.79.79,0,0,0,.41-.13.87.87,0,0,0,.33-.43.64.64,0,0,0,0-.51A.58.58,0,0,0,31.33,29.84Z" vector-effect="non-scaling-stroke"/><path fill="#7f8038" d="M32.54,28.44a.75.75,0,0,0-.43.13.87.87,0,0,0-.34.44.72.72,0,0,0,0,.54.63.63,0,0,0,.55.3.77.77,0,0,0,.43-.13.76.76,0,0,0,.29-1A.61.61,0,0,0,32.54,28.44Z" vector-effect="non-scaling-stroke"/><path fill="#7f8038" d="M14,15.63a.53.53,0,0,0-.3.09.63.63,0,0,0-.25.33.46.46,0,0,0,0,.38.42.42,0,0,0,.39.22.59.59,0,0,0,.31-.09.56.56,0,0,0,.21-.71A.45.45,0,0,0,14,15.63Z" vector-effect="non-scaling-stroke"/><path fill="#7f8038" d="M24.42,14.54a.66.66,0,0,0-.35.11.61.61,0,0,0-.25.78.46.46,0,0,0,.42.23.62.62,0,0,0,.34-.11.61.61,0,0,0,.25-.78A.46.46,0,0,0,24.42,14.54Z" vector-effect="non-scaling-stroke"/><path fill="#7f8038" d="M22.88,14.43a.49.49,0,0,0,.42.23.66.66,0,0,0,.35-.11.61.61,0,0,0,.25-.78.47.47,0,0,0-.42-.23.66.66,0,0,0-.35.11A.61.61,0,0,0,22.88,14.43Z" vector-effect="non-scaling-stroke"/><path fill="#7f8038" d="M22.3,12.77a.59.59,0,0,0-.34.1.76.76,0,0,0-.28.36.57.57,0,0,0,0,.41.47.47,0,0,0,.41.22.59.59,0,0,0,.34-.1.76.76,0,0,0,.28-.36.57.57,0,0,0,0-.41A.45.45,0,0,0,22.3,12.77Z" vector-effect="non-scaling-stroke"/><path fill="#7f8038" d="M20.34,13.2a.45.45,0,0,0,.39.21.56.56,0,0,0,.33-.1.57.57,0,0,0,.24-.74.43.43,0,0,0-.39-.22.7.7,0,0,0-.34.1.69.69,0,0,0-.26.35A.47.47,0,0,0,20.34,13.2Z" vector-effect="non-scaling-stroke"/><path fill="#7f8038" d="M18.85,13.08a.41.41,0,0,0,.37.21.59.59,0,0,0,.54-.81.41.41,0,0,0-.37-.21.63.63,0,0,0-.32.1.7.7,0,0,0-.26.33A.45.45,0,0,0,18.85,13.08Z" vector-effect="non-scaling-stroke"/><path fill="#7f8038" d="M17.29,13.46a.44.44,0,0,0,.39.22.67.67,0,0,0,.33-.1.57.57,0,0,0,.23-.73.46.46,0,0,0-.4-.23.56.56,0,0,0-.32.11.6.6,0,0,0-.26.33A.47.47,0,0,0,17.29,13.46Z" vector-effect="non-scaling-stroke"/><path fill="#7f8038" d="M16.21,14.38a.57.57,0,0,0,.33-.11.56.56,0,0,0,.23-.74.44.44,0,0,0-.41-.23.56.56,0,0,0-.33.1.59.59,0,0,0-.23.75A.49.49,0,0,0,16.21,14.38Z" vector-effect="non-scaling-stroke"/><path fill="#7f8038" d="M15,14.34a.63.63,0,0,0-.32.1.59.59,0,0,0-.26.34.52.52,0,0,0,0,.41.47.47,0,0,0,.42.23.6.6,0,0,0,.33-.1.58.58,0,0,0,.22-.75A.47.47,0,0,0,15,14.34Z" vector-effect="non-scaling-stroke"/><path fill="#7f8038" d="M12.41,15.06a.55.55,0,0,0-.21.69.45.45,0,0,0,.39.21.58.58,0,0,0,.3-.09.61.61,0,0,0,.24-.31.5.5,0,0,0,0-.38.45.45,0,0,0-.39-.21A.53.53,0,0,0,12.41,15.06Z" vector-effect="non-scaling-stroke"/><path fill="#7f8038" d="M25.6,14.93a.68.68,0,0,0,.63-.93.5.5,0,0,0-.44-.24.69.69,0,0,0-.36.11.65.65,0,0,0-.27.82A.48.48,0,0,0,25.6,14.93Z" vector-effect="non-scaling-stroke"/><path fill="#7f8038" d="M25.37,12.87a.48.48,0,0,0-.43-.24.66.66,0,0,0-.36.11.74.74,0,0,0-.3.38.55.55,0,0,0,0,.44.5.5,0,0,0,.43.23.69.69,0,0,0,.36-.11A.63.63,0,0,0,25.37,12.87Z" vector-effect="non-scaling-stroke"/><path fill="#7f8038" d="M23.22,12.65a.49.49,0,0,0,.43.23.61.61,0,0,0,.36-.11.7.7,0,0,0,.29-.37.53.53,0,0,0,0-.43.5.5,0,0,0-.43-.24.69.69,0,0,0-.36.11.73.73,0,0,0-.29.38A.58.58,0,0,0,23.22,12.65Z" vector-effect="non-scaling-stroke"/><path fill="#7f8038" d="M21.94,12a.48.48,0,0,0,.42.23.66.66,0,0,0,.35-.11.62.62,0,0,0,.25-.79.46.46,0,0,0-.42-.23.66.66,0,0,0-.35.11.7.7,0,0,0-.29.37A.55.55,0,0,0,21.94,12Z" vector-effect="non-scaling-stroke"/><path fill="#7f8038" d="M20.91,11.89A.65.65,0,0,0,21.5,11a.45.45,0,0,0-.41-.22.63.63,0,0,0-.34.1.76.76,0,0,0-.28.36.52.52,0,0,0,0,.41A.46.46,0,0,0,20.91,11.89Z" vector-effect="non-scaling-stroke"/><path fill="#7f8038" d="M19.38,11.83a.56.56,0,0,0,.33-.1A.58.58,0,0,0,20,11a.44.44,0,0,0-.39-.22.64.64,0,0,0-.33.1.59.59,0,0,0-.24.74A.46.46,0,0,0,19.38,11.83Z" vector-effect="non-scaling-stroke"/><path fill="#7f8038" d="M17.83,12.13a.59.59,0,0,0,.33-.11.64.64,0,0,0,.27-.34.57.57,0,0,0,0-.41.45.45,0,0,0-.41-.22.58.58,0,0,0-.33.1.71.71,0,0,0-.27.35.5.5,0,0,0,0,.4A.46.46,0,0,0,17.83,12.13Z" vector-effect="non-scaling-stroke"/><path fill="#7f8038" d="M16.47,11.61a.63.63,0,0,0-.58.88.47.47,0,0,0,.42.24.66.66,0,0,0,.35-.11.67.67,0,0,0,.27-.35.51.51,0,0,0,0-.42A.47.47,0,0,0,16.47,11.61Z" vector-effect="non-scaling-stroke"/><path fill="#7f8038" d="M14.9,13.55a.63.63,0,0,0,.32-.1.6.6,0,0,0,.26-.33.5.5,0,0,0,0-.4.43.43,0,0,0-.4-.22.5.5,0,0,0-.31.1.57.57,0,0,0-.26.33.5.5,0,0,0,0,.4A.47.47,0,0,0,14.9,13.55Z" vector-effect="non-scaling-stroke"/><path fill="#7f8038" d="M13.76,13.64a.56.56,0,0,0-.31.09.56.56,0,0,0-.22.73.45.45,0,0,0,.4.22.62.62,0,0,0,.32-.09.58.58,0,0,0,.22-.73A.45.45,0,0,0,13.76,13.64Z" vector-effect="non-scaling-stroke"/><path fill="#7f8038" d="M11.16,14.4a.52.52,0,0,0-.21.67.44.44,0,0,0,.38.21.55.55,0,0,0,.5-.76.44.44,0,0,0-.38-.21A.5.5,0,0,0,11.16,14.4Z" vector-effect="non-scaling-stroke"/><path fill="#7f8038" d="M27,14.07a.68.68,0,0,0,.38-.12.76.76,0,0,0,.31-.4.56.56,0,0,0,0-.46.53.53,0,0,0-.46-.26.7.7,0,0,0-.38.13.72.72,0,0,0-.31.4.56.56,0,0,0,0,.46A.51.51,0,0,0,27,14.07Z" vector-effect="non-scaling-stroke"/><path fill="#7f8038" d="M25.73,12.7a.5.5,0,0,0,.45.25.66.66,0,0,0,.38-.12.67.67,0,0,0,.28-.85.51.51,0,0,0-.46-.25.68.68,0,0,0-.38.12A.67.67,0,0,0,25.73,12.7Z" vector-effect="non-scaling-stroke"/><path fill="#7f8038" d="M24.66,11.27a.58.58,0,0,0,0,.45.53.53,0,0,0,.45.25.71.71,0,0,0,.37-.12.76.76,0,0,0,.31-.4.54.54,0,0,0,0-.45.49.49,0,0,0-.44-.24.73.73,0,0,0-.69.51Z" vector-effect="non-scaling-stroke"/><path fill="#7f8038" d="M23.45,10.91a.5.5,0,0,0,.44.24.75.75,0,0,0,.37-.11.66.66,0,0,0,.26-.84.49.49,0,0,0-.44-.24.75.75,0,0,0-.37.11A.67.67,0,0,0,23.45,10.91Z" vector-effect="non-scaling-stroke"/><path fill="#7f8038" d="M22.5,10.65a.69.69,0,0,0,.36-.11.77.77,0,0,0,.29-.38.53.53,0,0,0,0-.43.5.5,0,0,0-.43-.24.69.69,0,0,0-.36.11A.77.77,0,0,0,22,10a.53.53,0,0,0,0,.43A.5.5,0,0,0,22.5,10.65Z" vector-effect="non-scaling-stroke"/><path fill="#7f8038" d="M20.59,10.11a.46.46,0,0,0,.41.23.66.66,0,0,0,.35-.11.64.64,0,0,0,.28-.37.51.51,0,0,0,0-.42.47.47,0,0,0-.41-.22.62.62,0,0,0-.35.1.7.7,0,0,0-.29.37A.55.55,0,0,0,20.59,10.11Z" vector-effect="non-scaling-stroke"/><path fill="#7f8038" d="M19.11,10.1a.44.44,0,0,0,.4.23.62.62,0,0,0,.33-.11.59.59,0,0,0,.24-.75.45.45,0,0,0-.4-.22.56.56,0,0,0-.33.1A.58.58,0,0,0,19.11,10.1Z" vector-effect="non-scaling-stroke"/><path fill="#7f8038" d="M18,10.55a.55.55,0,0,0,.32-.1.56.56,0,0,0,.23-.72.44.44,0,0,0-.38-.21.63.63,0,0,0-.32.1.56.56,0,0,0-.23.72A.43.43,0,0,0,18,10.55Z" vector-effect="non-scaling-stroke"/><path fill="#7f8038" d="M16.44,11.08a.67.67,0,0,0,.33-.1.64.64,0,0,0,.26-.35.5.5,0,0,0,0-.4.47.47,0,0,0-.4-.22.67.67,0,0,0-.33.1.58.58,0,0,0-.23.74A.46.46,0,0,0,16.44,11.08Z" vector-effect="non-scaling-stroke"/><path fill="#7f8038" d="M15,11.83a.58.58,0,0,0,.33-.1.65.65,0,0,0,.27-.34.55.55,0,0,0,0-.42.47.47,0,0,0-.42-.22.58.58,0,0,0-.33.1.63.63,0,0,0-.26.34.48.48,0,0,0,0,.41A.46.46,0,0,0,15,11.83Z" vector-effect="non-scaling-stroke"/><path fill="#7f8038" d="M13.6,12.77a.61.61,0,0,0,.57-.43.5.5,0,0,0,0-.38.47.47,0,0,0-.4-.22.57.57,0,0,0-.31.1.55.55,0,0,0-.22.71A.44.44,0,0,0,13.6,12.77Z" vector-effect="non-scaling-stroke"/><path fill="#7f8038" d="M12.51,12.93a.57.57,0,0,0-.31.1.61.61,0,0,0-.25.32.46.46,0,0,0,0,.38.43.43,0,0,0,.39.22.56.56,0,0,0,.31-.09.6.6,0,0,0,.25-.32.52.52,0,0,0,0-.39A.47.47,0,0,0,12.51,12.93Z" vector-effect="non-scaling-stroke"/><path fill="#7f8038" d="M10.2,13.62a.55.55,0,0,0-.28.09.5.5,0,0,0-.2.65.41.41,0,0,0,.37.21.51.51,0,0,0,.28-.09.57.57,0,0,0,.23-.3.42.42,0,0,0,0-.35A.41.41,0,0,0,10.2,13.62Z" vector-effect="non-scaling-stroke"/><path fill="#7f8038" d="M29,12.22a.51.51,0,0,0-.47-.27.73.73,0,0,0-.39.13.71.71,0,0,0-.29.89.55.55,0,0,0,.47.26.66.66,0,0,0,.4-.13A.68.68,0,0,0,29,12.22Z" vector-effect="non-scaling-stroke"/><path fill="#7f8038" d="M28.32,11.58a.61.61,0,0,0,0-.48.55.55,0,0,0-.47-.26.73.73,0,0,0-.4.13.76.76,0,0,0-.32.41.61.61,0,0,0,0,.48.53.53,0,0,0,.47.26A.7.7,0,0,0,28,12,.75.75,0,0,0,28.32,11.58Z" vector-effect="non-scaling-stroke"/><path fill="#7f8038" d="M26.6,11.06a.73.73,0,0,0,.39-.13.68.68,0,0,0,.28-.88.52.52,0,0,0-.46-.26.76.76,0,0,0-.4.13.77.77,0,0,0-.32.41.63.63,0,0,0,0,.47A.53.53,0,0,0,26.6,11.06Z" vector-effect="non-scaling-stroke"/><path fill="#7f8038" d="M25.59,8.89A.69.69,0,0,0,25.2,9a.76.76,0,0,0-.31.4.63.63,0,0,0,0,.47.54.54,0,0,0,.46.25.73.73,0,0,0,.67-1A.53.53,0,0,0,25.59,8.89Z" vector-effect="non-scaling-stroke"/><path fill="#7f8038" d="M24.23,8.3a.68.68,0,0,0-.38.12.76.76,0,0,0-.31.4.54.54,0,0,0,0,.45.5.5,0,0,0,.45.25.68.68,0,0,0,.38-.12.65.65,0,0,0,.27-.85A.49.49,0,0,0,24.23,8.3Z" vector-effect="non-scaling-stroke"/><path fill="#7f8038" d="M22.77,7.87A.65.65,0,0,0,22.4,8a.73.73,0,0,0-.3.39.52.52,0,0,0,0,.44.49.49,0,0,0,.44.24A.75.75,0,0,0,23,9a.77.77,0,0,0,.3-.39.51.51,0,0,0,0-.44A.48.48,0,0,0,22.77,7.87Z" vector-effect="non-scaling-stroke"/><path fill="#7f8038" d="M21.28,7.67a.71.71,0,0,0-.65.48.53.53,0,0,0,0,.43.5.5,0,0,0,.43.24.69.69,0,0,0,.36-.11.73.73,0,0,0,.29-.38.5.5,0,0,0,0-.43A.46.46,0,0,0,21.28,7.67Z" vector-effect="non-scaling-stroke"/><path fill="#7f8038" d="M19.76,7.71a.6.6,0,0,0-.34.11.65.65,0,0,0-.28.36.51.51,0,0,0,0,.42.47.47,0,0,0,.41.22.59.59,0,0,0,.34-.1.64.64,0,0,0,.28-.37.49.49,0,0,0,0-.41A.46.46,0,0,0,19.76,7.71Z" vector-effect="non-scaling-stroke"/><path fill="#7f8038" d="M18.61,8.18A.45.45,0,0,0,18.22,8a.56.56,0,0,0-.33.1.62.62,0,0,0-.27.35.44.44,0,0,0,0,.39A.43.43,0,0,0,18,9a.64.64,0,0,0,.33-.1.66.66,0,0,0,.27-.35A.47.47,0,0,0,18.61,8.18Z" vector-effect="non-scaling-stroke"/><path fill="#7f8038" d="M16.7,8.47a.59.59,0,0,0-.31.09.7.7,0,0,0-.26.33.46.46,0,0,0,0,.38.42.42,0,0,0,.37.2.59.59,0,0,0,.53-.8A.4.4,0,0,0,16.7,8.47Z" vector-effect="non-scaling-stroke"/><path fill="#7f8038" d="M15.61,9.31a.45.45,0,0,0-.39-.21.62.62,0,0,0-.32.09.61.61,0,0,0-.25.34.46.46,0,0,0,0,.38.43.43,0,0,0,.39.22.64.64,0,0,0,.57-.43A.52.52,0,0,0,15.61,9.31Z" vector-effect="non-scaling-stroke"/><path fill="#7f8038" d="M14.19,10.16a.45.45,0,0,0-.41-.22.51.51,0,0,0-.32.1.59.59,0,0,0-.26.34.47.47,0,0,0,0,.4.46.46,0,0,0,.4.23.64.64,0,0,0,.33-.1.65.65,0,0,0,.26-.34A.49.49,0,0,0,14.19,10.16Z" vector-effect="non-scaling-stroke"/><path fill="#7f8038" d="M12.45,11a.53.53,0,0,0-.3.09.6.6,0,0,0-.25.32.49.49,0,0,0,0,.38.45.45,0,0,0,.39.21.57.57,0,0,0,.52-.79A.45.45,0,0,0,12.45,11Z" vector-effect="non-scaling-stroke"/><path fill="#7f8038" d="M10.93,12.34a.53.53,0,0,0-.2.69.42.42,0,0,0,.38.21.55.55,0,0,0,.3-.09.55.55,0,0,0,.21-.69.45.45,0,0,0-.39-.21A.53.53,0,0,0,10.93,12.34Z" vector-effect="non-scaling-stroke"/><path fill="#7f8038" d="M9,12.93a.5.5,0,0,0-.27.08.5.5,0,0,0-.19.64.4.4,0,0,0,.35.2.47.47,0,0,0,.28-.09.49.49,0,0,0,.22-.29.4.4,0,0,0,0-.34A.39.39,0,0,0,9,12.93Z" vector-effect="non-scaling-stroke"/><path fill="#7f8038" d="M30,11a.76.76,0,0,0-.41.13.84.84,0,0,0-.34.43.63.63,0,0,0,0,.49.54.54,0,0,0,.49.28.74.74,0,0,0,.41-.13.73.73,0,0,0,.3-.93A.55.55,0,0,0,30,11Z" vector-effect="non-scaling-stroke"/><path fill="#7f8038" d="M29.59,10a.55.55,0,0,0-.48-.28.8.8,0,0,0-.75.57.59.59,0,0,0,0,.49.54.54,0,0,0,.49.27A.79.79,0,0,0,29.3,11,.71.71,0,0,0,29.59,10Z" vector-effect="non-scaling-stroke"/><path fill="#7f8038" d="M27.36,9.78a.55.55,0,0,0,.49.27.71.71,0,0,0,.41-.13.75.75,0,0,0,.33-.43.59.59,0,0,0,0-.49.54.54,0,0,0-.48-.27.74.74,0,0,0-.41.13A.73.73,0,0,0,27.36,9.78Z" vector-effect="non-scaling-stroke"/><path fill="#7f8038" d="M26.91,7.8a.79.79,0,0,0-.73.55.57.57,0,0,0,0,.48.53.53,0,0,0,.48.27.8.8,0,0,0,.72-.55.57.57,0,0,0,0-.48A.52.52,0,0,0,26.91,7.8Z" vector-effect="non-scaling-stroke"/><path fill="#7f8038" d="M24.94,8.1a.55.55,0,0,0,.47.26.73.73,0,0,0,.4-.13.69.69,0,0,0,.28-.89.53.53,0,0,0-.47-.26.73.73,0,0,0-.39.13A.7.7,0,0,0,24.94,8.1Z" vector-effect="non-scaling-stroke"/><path fill="#7f8038" d="M24.27,6.58a.69.69,0,0,0-.39.12.78.78,0,0,0-.31.41.56.56,0,0,0,0,.46.53.53,0,0,0,.46.25.69.69,0,0,0,.39-.12.72.72,0,0,0,.31-.4.6.6,0,0,0,0-.46A.53.53,0,0,0,24.27,6.58Z" vector-effect="non-scaling-stroke"/><path fill="#7f8038" d="M22.18,7.23a.52.52,0,0,0,.45.24A.76.76,0,0,0,23,7.36a.79.79,0,0,0,.3-.4.58.58,0,0,0,0-.45.53.53,0,0,0-.45-.25.68.68,0,0,0-.38.12.81.81,0,0,0-.3.39A.6.6,0,0,0,22.18,7.23Z" vector-effect="non-scaling-stroke"/><path fill="#7f8038" d="M21.33,6.14a.68.68,0,0,0-.63.93.5.5,0,0,0,.44.24.69.69,0,0,0,.36-.11.73.73,0,0,0,.3-.39.49.49,0,0,0,0-.43A.47.47,0,0,0,21.33,6.14Z" vector-effect="non-scaling-stroke"/><path fill="#7f8038" d="M19.62,7.34A.66.66,0,0,0,20,7.23a.68.68,0,0,0,.28-.37.51.51,0,0,0,0-.42.47.47,0,0,0-.42-.24.66.66,0,0,0-.35.11.69.69,0,0,0-.29.38.52.52,0,0,0,0,.42A.47.47,0,0,0,19.62,7.34Z" vector-effect="non-scaling-stroke"/><path fill="#7f8038" d="M18.13,7.53a.64.64,0,0,0,.61-.46.5.5,0,0,0,0-.4.46.46,0,0,0-.41-.23.65.65,0,0,0-.58.87A.45.45,0,0,0,18.13,7.53Z" vector-effect="non-scaling-stroke"/><path fill="#7f8038" d="M16.6,7.93a.63.63,0,0,0,.32-.1.57.57,0,0,0,.22-.72.42.42,0,0,0-.38-.21.55.55,0,0,0-.32.1.57.57,0,0,0-.22.72A.42.42,0,0,0,16.6,7.93Z" vector-effect="non-scaling-stroke"/><path fill="#7f8038" d="M15,8.53a.59.59,0,0,0,.31-.09.64.64,0,0,0,.24-.32.43.43,0,0,0,0-.37.41.41,0,0,0-.36-.2.55.55,0,0,0-.3.09.54.54,0,0,0-.22.69A.4.4,0,0,0,15,8.53Z" vector-effect="non-scaling-stroke"/><path fill="#7f8038" d="M13.59,9.32a.56.56,0,0,0,.31-.09.54.54,0,0,0,.22-.7.4.4,0,0,0-.37-.22.63.63,0,0,0-.32.1.55.55,0,0,0-.21.7A.41.41,0,0,0,13.59,9.32Z" vector-effect="non-scaling-stroke"/><path fill="#7f8038" d="M12.24,10.27a.5.5,0,0,0,.31-.1.55.55,0,0,0,.22-.71.46.46,0,0,0-.4-.22.54.54,0,0,0-.3.1.55.55,0,0,0-.22.71A.43.43,0,0,0,12.24,10.27Z" vector-effect="non-scaling-stroke"/><path fill="#7f8038" d="M11.11,10.36a.6.6,0,0,0-.29.08.53.53,0,0,0-.2.67.41.41,0,0,0,.37.21.58.58,0,0,0,.53-.4.45.45,0,0,0,0-.36A.4.4,0,0,0,11.11,10.36Z" vector-effect="non-scaling-stroke"/><path fill="#7f8038" d="M9.68,11.64a.54.54,0,0,0-.2.68.44.44,0,0,0,.38.21.52.52,0,0,0,.29-.09.53.53,0,0,0,.21-.68.46.46,0,0,0-.39-.2A.6.6,0,0,0,9.68,11.64Z" vector-effect="non-scaling-stroke"/><path fill="#7f8038" d="M7.69,12.28a.5.5,0,0,0-.26.08.58.58,0,0,0-.21.28.47.47,0,0,0,0,.33.39.39,0,0,0,.34.19.53.53,0,0,0,.27-.08A.48.48,0,0,0,8,12.47.38.38,0,0,0,7.69,12.28Z" vector-effect="non-scaling-stroke"/><path fill="#7f8038" d="M31.85,10.37a.56.56,0,0,0-.51-.28.8.8,0,0,0-.73,1.09.58.58,0,0,0,.51.28.86.86,0,0,0,.43-.13A.76.76,0,0,0,31.85,10.37Z" vector-effect="non-scaling-stroke"/><path fill="#7f8038" d="M31,9.14a.57.57,0,0,0-.51-.29.75.75,0,0,0-.42.14.73.73,0,0,0-.3.95.55.55,0,0,0,.5.28.8.8,0,0,0,.42-.13A.74.74,0,0,0,31,9.14Z" vector-effect="non-scaling-stroke"/><path fill="#7f8038" d="M30,8.51A.61.61,0,0,0,30,8a.56.56,0,0,0-.51-.28.74.74,0,0,0-.42.13.82.82,0,0,0-.34.44.6.6,0,0,0,0,.51.57.57,0,0,0,.5.28A.83.83,0,0,0,29.69,9,.89.89,0,0,0,30,8.51Z" vector-effect="non-scaling-stroke"/><path fill="#7f8038" d="M28.12,8.12A.8.8,0,0,0,28.54,8a.73.73,0,0,0,.3-.94.57.57,0,0,0-.5-.28.86.86,0,0,0-.42.13.74.74,0,0,0-.3.94A.56.56,0,0,0,28.12,8.12Z" vector-effect="non-scaling-stroke"/><path fill="#7f8038" d="M26.4,6.57a.63.63,0,0,0,0,.49.56.56,0,0,0,.49.28.79.79,0,0,0,.41-.13.87.87,0,0,0,.34-.44.63.63,0,0,0,0-.49.56.56,0,0,0-.5-.27.79.79,0,0,0-.41.13A.88.88,0,0,0,26.4,6.57Z" vector-effect="non-scaling-stroke"/><path fill="#7f8038" d="M25.81,5.39a.66.66,0,0,0-.4.13.7.7,0,0,0-.29.91.53.53,0,0,0,.48.27.73.73,0,0,0,.4-.13.7.7,0,0,0,.29-.91A.53.53,0,0,0,25.81,5.39Z" vector-effect="non-scaling-stroke"/><path fill="#7f8038" d="M23.74,6a.51.51,0,0,0,.47.26.75.75,0,0,0,.4-.12.86.86,0,0,0,.32-.41.61.61,0,0,0,0-.48A.53.53,0,0,0,24.42,5a.76.76,0,0,0-.4.13A.69.69,0,0,0,23.74,6Z" vector-effect="non-scaling-stroke"/><path fill="#7f8038" d="M22.27,5.67a.52.52,0,0,0,.46.26.69.69,0,0,0,.39-.12.67.67,0,0,0,.27-.87.51.51,0,0,0-.46-.25.73.73,0,0,0-.66,1Z" vector-effect="non-scaling-stroke"/><path fill="#7f8038" d="M21.25,5.79a.65.65,0,0,0,.37-.12.68.68,0,0,0,.3-.39.54.54,0,0,0,0-.45.51.51,0,0,0-.44-.24.76.76,0,0,0-.38.11.66.66,0,0,0-.27.84A.5.5,0,0,0,21.25,5.79Z" vector-effect="non-scaling-stroke"/><path fill="#7f8038" d="M19.76,5.83a.72.72,0,0,0,.36-.11.78.78,0,0,0,.29-.38.58.58,0,0,0,0-.43.46.46,0,0,0-.43-.23.66.66,0,0,0-.35.11.62.62,0,0,0-.26.8A.47.47,0,0,0,19.76,5.83Z" vector-effect="non-scaling-stroke"/><path fill="#7f8038" d="M18.21,6a.65.65,0,0,0,.34-.11.67.67,0,0,0,.28-.36.52.52,0,0,0,0-.41.47.47,0,0,0-.41-.23A.66.66,0,0,0,18,5a.76.76,0,0,0-.28.36.6.6,0,0,0,0,.42A.49.49,0,0,0,18.21,6Z" vector-effect="non-scaling-stroke"/><path fill="#7f8038" d="M16.66,6.4A.58.58,0,0,0,17,6.3.62.62,0,0,0,17.26,6a.52.52,0,0,0,0-.39.44.44,0,0,0-.39-.22.61.61,0,0,0-.34.1.57.57,0,0,0-.23.74A.43.43,0,0,0,16.66,6.4Z" vector-effect="non-scaling-stroke"/><path fill="#7f8038" d="M15.15,6.93a.62.62,0,0,0,.56-.43.47.47,0,0,0,0-.37.41.41,0,0,0-.37-.21A.6.6,0,0,0,15,6a.7.7,0,0,0-.26.33.47.47,0,0,0,0,.37A.44.44,0,0,0,15.15,6.93Z" vector-effect="non-scaling-stroke"/><path fill="#7f8038" d="M13.67,7.61a.53.53,0,0,0,.3-.09.51.51,0,0,0,.21-.66.4.4,0,0,0-.35-.2.6.6,0,0,0-.3.1.52.52,0,0,0-.21.66A.39.39,0,0,0,13.67,7.61Z" vector-effect="non-scaling-stroke"/><path fill="#7f8038" d="M12.27,8.49a.55.55,0,0,0,.3-.09.54.54,0,0,0,.21-.69.42.42,0,0,0-.37-.2.53.53,0,0,0-.3.09.54.54,0,0,0-.21.69A.42.42,0,0,0,12.27,8.49Z" vector-effect="non-scaling-stroke"/><path fill="#7f8038" d="M11.07,8.5a.57.57,0,0,0-.54.41.47.47,0,0,0,0,.37.43.43,0,0,0,.38.22.52.52,0,0,0,.31-.1.54.54,0,0,0,.21-.69A.43.43,0,0,0,11.07,8.5Z" vector-effect="non-scaling-stroke"/><path fill="#7f8038" d="M9.84,9.65a.47.47,0,0,0-.28.09.55.55,0,0,0-.23.29.44.44,0,0,0,0,.36.39.39,0,0,0,.36.2A.49.49,0,0,0,10,10.5a.57.57,0,0,0,.23-.3.42.42,0,0,0,0-.35A.41.41,0,0,0,9.84,9.65Z" vector-effect="non-scaling-stroke"/><path fill="#7f8038" d="M8.39,11a.48.48,0,0,0-.22.3.42.42,0,0,0,0,.35.42.42,0,0,0,.37.2.49.49,0,0,0,.28-.09.57.57,0,0,0,.23-.3.47.47,0,0,0,0-.35.4.4,0,0,0-.37-.2A.47.47,0,0,0,8.39,11Z" vector-effect="non-scaling-stroke"/><path fill="#7f8038" d="M6.44,11.65a.43.43,0,0,0-.25.07A.56.56,0,0,0,6,12a.46.46,0,0,0,0,.33.39.39,0,0,0,.33.18.42.42,0,0,0,.26-.08.53.53,0,0,0,.21-.26.46.46,0,0,0,0-.33A.39.39,0,0,0,6.44,11.65Z" vector-effect="non-scaling-stroke"/><path fill="#7f8038" d="M32.75,9.18a.85.85,0,0,0-.45.14.77.77,0,0,0-.31,1,.59.59,0,0,0,.52.29.82.82,0,0,0,.45-.14.9.9,0,0,0,.36-.46.69.69,0,0,0,0-.53A.59.59,0,0,0,32.75,9.18Z" vector-effect="non-scaling-stroke"/><path fill="#7f8038" d="M32.43,8.25A.58.58,0,0,0,31.91,8a.83.83,0,0,0-.43.13.92.92,0,0,0-.36.47.63.63,0,0,0,0,.52.59.59,0,0,0,.52.29.82.82,0,0,0,.44-.14A.76.76,0,0,0,32.43,8.25Z" vector-effect="non-scaling-stroke"/><path fill="#7f8038" d="M31.54,7.65a.63.63,0,0,0,0-.52A.58.58,0,0,0,31,6.84a.76.76,0,0,0-.43.14.86.86,0,0,0-.36.46.67.67,0,0,0,0,.52.6.6,0,0,0,.52.29.82.82,0,0,0,.44-.14A.84.84,0,0,0,31.54,7.65Z" vector-effect="non-scaling-stroke"/><path fill="#7f8038" d="M30.38,6.17a.58.58,0,0,0-.52-.28.75.75,0,0,0-.43.13.84.84,0,0,0-.35.46.6.6,0,0,0,0,.51.58.58,0,0,0,.52.29.81.81,0,0,0,.43-.14A.76.76,0,0,0,30.38,6.17Z" vector-effect="non-scaling-stroke"/><path fill="#7f8038" d="M28.68,5A.82.82,0,0,0,28,6.11a.57.57,0,0,0,.51.29.75.75,0,0,0,.42-.14.86.86,0,0,0,.35-.45.6.6,0,0,0,0-.51A.58.58,0,0,0,28.68,5Z" vector-effect="non-scaling-stroke"/><path fill="#7f8038" d="M27.38,4.32a.74.74,0,0,0-.42.13.73.73,0,0,0-.3.94.57.57,0,0,0,.5.28.83.83,0,0,0,.42-.13.89.89,0,0,0,.34-.45.62.62,0,0,0,0-.5A.57.57,0,0,0,27.38,4.32Z" vector-effect="non-scaling-stroke"/><path fill="#7f8038" d="M26,3.72a.83.83,0,0,0-.42.13.74.74,0,0,0-.29.94.55.55,0,0,0,.49.27.74.74,0,0,0,.42-.13A.73.73,0,0,0,26.5,4,.55.55,0,0,0,26,3.72Z" vector-effect="non-scaling-stroke"/><path fill="#7f8038" d="M24.52,3.38a.72.72,0,0,0-.4.12.81.81,0,0,0-.33.43.59.59,0,0,0,0,.49.54.54,0,0,0,.48.26.78.78,0,0,0,.41-.12A.73.73,0,0,0,25,3.64.57.57,0,0,0,24.52,3.38Z" vector-effect="non-scaling-stroke"/><path fill="#7f8038" d="M23.05,3.14a.75.75,0,0,0-.4.12.8.8,0,0,0-.31.42.59.59,0,0,0,0,.47.55.55,0,0,0,.47.26.7.7,0,0,0,.39-.13.76.76,0,0,0,.32-.41.55.55,0,0,0,0-.47A.52.52,0,0,0,23.05,3.14Z" vector-effect="non-scaling-stroke"/><path fill="#7f8038" d="M21.52,3.06a.68.68,0,0,0-.38.12.66.66,0,0,0-.27.86.5.5,0,0,0,.45.25.71.71,0,0,0,.39-.12.72.72,0,0,0,.31-.4.57.57,0,0,0,0-.46A.51.51,0,0,0,21.52,3.06Z" vector-effect="non-scaling-stroke"/><path fill="#7f8038" d="M20.48,3.38A.5.5,0,0,0,20,3.14a.7.7,0,0,0-.37.11.65.65,0,0,0-.27.83.49.49,0,0,0,.44.25.7.7,0,0,0,.37-.11.74.74,0,0,0,.3-.4A.56.56,0,0,0,20.48,3.38Z" vector-effect="non-scaling-stroke"/><path fill="#7f8038" d="M18.53,3.37a.66.66,0,0,0-.35.11.77.77,0,0,0-.29.38.51.51,0,0,0,0,.42.5.5,0,0,0,.43.24.66.66,0,0,0,.35-.11.63.63,0,0,0,.26-.8A.48.48,0,0,0,18.53,3.37Z" vector-effect="non-scaling-stroke"/><path fill="#7f8038" d="M17.38,4a.45.45,0,0,0-.4-.22.66.66,0,0,0-.35.11.6.6,0,0,0-.24.75.46.46,0,0,0,.41.23.59.59,0,0,0,.33-.11.64.64,0,0,0,.28-.35A.52.52,0,0,0,17.38,4Z" vector-effect="non-scaling-stroke"/><path fill="#7f8038" d="M15.44,4.31a.56.56,0,0,0-.33.1.63.63,0,0,0-.26.34.45.45,0,0,0,0,.38.43.43,0,0,0,.39.22.63.63,0,0,0,.32-.1.57.57,0,0,0,.23-.73A.44.44,0,0,0,15.44,4.31Z" vector-effect="non-scaling-stroke"/><path fill="#7f8038" d="M13.93,5a.59.59,0,0,0-.31.09.54.54,0,0,0-.21.69.41.41,0,0,0,.36.2.63.63,0,0,0,.31-.1.6.6,0,0,0,.24-.32.44.44,0,0,0,0-.36A.4.4,0,0,0,13.93,5Z" vector-effect="non-scaling-stroke"/><path fill="#7f8038" d="M12.48,5.82a.55.55,0,0,0-.5.74.39.39,0,0,0,.35.19.51.51,0,0,0,.28-.09.59.59,0,0,0,.24-.3.42.42,0,0,0,0-.35A.39.39,0,0,0,12.48,5.82Z" vector-effect="non-scaling-stroke"/><path fill="#7f8038" d="M11.09,6.74a.55.55,0,0,0-.29.08.52.52,0,0,0-.21.67.41.41,0,0,0,.36.2.52.52,0,0,0,.29-.09.61.61,0,0,0,.24-.31.45.45,0,0,0,0-.36A.41.41,0,0,0,11.09,6.74Z" vector-effect="non-scaling-stroke"/><path fill="#7f8038" d="M9.78,7.77a.53.53,0,0,0-.3.09.56.56,0,0,0-.23.31.4.4,0,0,0,0,.37.41.41,0,0,0,.37.21.55.55,0,0,0,.3-.09.66.66,0,0,0,.24-.31.46.46,0,0,0,0-.37A.43.43,0,0,0,9.78,7.77Z" vector-effect="non-scaling-stroke"/><path fill="#7f8038" d="M8.29,9a.58.58,0,0,0-.22.29.4.4,0,0,0,0,.34.38.38,0,0,0,.35.2.57.57,0,0,0,.28-.08.5.5,0,0,0,.19-.64A.39.39,0,0,0,8.57,9,.46.46,0,0,0,8.29,9Z" vector-effect="non-scaling-stroke"/><path fill="#7f8038" d="M7.16,10.36A.48.48,0,0,0,7,11a.39.39,0,0,0,.36.2.53.53,0,0,0,.27-.08.59.59,0,0,0,.23-.29.47.47,0,0,0,0-.35.4.4,0,0,0-.36-.2A.46.46,0,0,0,7.16,10.36Z" vector-effect="non-scaling-stroke"/><path fill="#7f8038" d="M5,11a.45.45,0,0,0-.17.57.35.35,0,0,0,.32.18.45.45,0,0,0,.25-.07.45.45,0,0,0,.17-.58.35.35,0,0,0-.32-.17A.43.43,0,0,0,5,11Z" vector-effect="non-scaling-stroke"/><path fill="#7f8038" d="M34.18,8.19a.82.82,0,0,0-.45.14.8.8,0,0,0-.33,1,.61.61,0,0,0,.54.3.88.88,0,0,0,.46-.14.79.79,0,0,0,.32-1A.61.61,0,0,0,34.18,8.19Z" vector-effect="non-scaling-stroke"/><path fill="#7f8038" d="M33.05,8.43a.77.77,0,0,0,.45-.14.8.8,0,0,0,.33-1A.62.62,0,0,0,33.29,7a.78.78,0,0,0-.46.14,1,1,0,0,0-.37.47.69.69,0,0,0,0,.55A.61.61,0,0,0,33.05,8.43Z" vector-effect="non-scaling-stroke"/><path fill="#7f8038" d="M32.05,7.24a.77.77,0,0,0,.45-.14.79.79,0,0,0,.32-1,.61.61,0,0,0-.54-.3.85.85,0,0,0-.45.14.8.8,0,0,0-.32,1A.6.6,0,0,0,32.05,7.24Z" vector-effect="non-scaling-stroke"/><path fill="#7f8038" d="M31.19,4.78a.82.82,0,0,0-.45.14.88.88,0,0,0-.36.47.67.67,0,0,0,0,.54.6.6,0,0,0,.53.29.82.82,0,0,0,.45-.14.84.84,0,0,0,.36-.47.64.64,0,0,0,0-.53A.58.58,0,0,0,31.19,4.78Z" vector-effect="non-scaling-stroke"/><path fill="#7f8038" d="M30,3.87a.82.82,0,0,0-.45.14.77.77,0,0,0-.31,1,.59.59,0,0,0,.52.29.84.84,0,0,0,.44-.13.78.78,0,0,0,.32-1A.59.59,0,0,0,30,3.87Z" vector-effect="non-scaling-stroke"/><path fill="#7f8038" d="M28.7,3.11a.82.82,0,0,0-.44.14.76.76,0,0,0-.31,1,.59.59,0,0,0,.52.29.82.82,0,0,0,.44-.14.76.76,0,0,0,.31-1A.59.59,0,0,0,28.7,3.11Z" vector-effect="non-scaling-stroke"/><path fill="#7f8038" d="M27.36,2.51a.75.75,0,0,0-.43.13.86.86,0,0,0-.35.45.67.67,0,0,0,0,.52.58.58,0,0,0,.51.28.76.76,0,0,0,.43-.14.82.82,0,0,0,.35-.45.64.64,0,0,0,0-.51A.56.56,0,0,0,27.36,2.51Z" vector-effect="non-scaling-stroke"/><path fill="#7f8038" d="M25.94,2.05a.76.76,0,0,0-.42.13.83.83,0,0,0-.34.44.66.66,0,0,0,0,.5.58.58,0,0,0,.51.28.86.86,0,0,0,.42-.13.75.75,0,0,0,.3-1A.58.58,0,0,0,25.94,2.05Z" vector-effect="non-scaling-stroke"/><path fill="#7f8038" d="M24.51,1.73a.71.71,0,0,0-.41.13.73.73,0,0,0-.3.92.55.55,0,0,0,.49.27.79.79,0,0,0,.42-.12A.73.73,0,0,0,25,2,.54.54,0,0,0,24.51,1.73Z" vector-effect="non-scaling-stroke"/><path fill="#7f8038" d="M22.87,2.85a.71.71,0,0,0,.39-.12.8.8,0,0,0,.33-.42.61.61,0,0,0,0-.48.55.55,0,0,0-.48-.26.75.75,0,0,0-.4.12.78.78,0,0,0-.32.42.61.61,0,0,0,0,.48A.54.54,0,0,0,22.87,2.85Z" vector-effect="non-scaling-stroke"/><path fill="#7f8038" d="M21.37,2.78a.69.69,0,0,0,.39-.12A.69.69,0,0,0,22,1.78a.51.51,0,0,0-.46-.25.71.71,0,0,0-.39.12.69.69,0,0,0-.28.88A.51.51,0,0,0,21.37,2.78Z" vector-effect="non-scaling-stroke"/><path fill="#7f8038" d="M19.86,2.82a.76.76,0,0,0,.38-.11.67.67,0,0,0,.27-.85.53.53,0,0,0-.45-.25.68.68,0,0,0-.38.12.66.66,0,0,0-.26.85A.49.49,0,0,0,19.86,2.82Z" vector-effect="non-scaling-stroke"/><path fill="#7f8038" d="M18.33,3a.59.59,0,0,0,.36-.11A.63.63,0,0,0,19,2.11a.5.5,0,0,0-.44-.24.69.69,0,0,0-.36.11.77.77,0,0,0-.29.38.55.55,0,0,0,0,.44A.49.49,0,0,0,18.33,3Z" vector-effect="non-scaling-stroke"/><path fill="#7f8038" d="M16.73,3.37a.58.58,0,0,0,.35-.11.6.6,0,0,0,.24-.77.46.46,0,0,0-.41-.23.6.6,0,0,0-.34.11.6.6,0,0,0-.25.77A.44.44,0,0,0,16.73,3.37Z" vector-effect="non-scaling-stroke"/><path fill="#7f8038" d="M15.21,3.84a.58.58,0,0,0,.33-.1.66.66,0,0,0,.27-.35.5.5,0,0,0,0-.4.46.46,0,0,0-.4-.21.6.6,0,0,0-.33.1.57.57,0,0,0-.23.74A.43.43,0,0,0,15.21,3.84Z" vector-effect="non-scaling-stroke"/><path fill="#7f8038" d="M13.72,4.43a.55.55,0,0,0,.32-.1A.59.59,0,0,0,14.29,4a.47.47,0,0,0,0-.37.4.4,0,0,0-.37-.2.56.56,0,0,0-.31.09.7.7,0,0,0-.26.33.5.5,0,0,0,0,.38A.45.45,0,0,0,13.72,4.43Z" vector-effect="non-scaling-stroke"/><path fill="#7f8038" d="M12.28,5.15a.58.58,0,0,0,.3-.09.52.52,0,0,0,.2-.67.37.37,0,0,0-.35-.19.52.52,0,0,0-.29.09.57.57,0,0,0-.24.31.42.42,0,0,0,0,.35A.4.4,0,0,0,12.28,5.15Z" vector-effect="non-scaling-stroke"/><path fill="#7f8038" d="M10.89,6a.57.57,0,0,0,.3-.1.53.53,0,0,0,.22-.68.43.43,0,0,0-.38-.2.61.61,0,0,0-.3.08.58.58,0,0,0-.24.32.43.43,0,0,0,0,.37A.41.41,0,0,0,10.89,6Z" vector-effect="non-scaling-stroke"/><path fill="#7f8038" d="M9.56,7a.52.52,0,0,0,.31-.1.54.54,0,0,0,.21-.69A.43.43,0,0,0,9.69,6a.55.55,0,0,0-.3.09.61.61,0,0,0-.25.32.43.43,0,0,0,0,.37A.42.42,0,0,0,9.56,7Z" vector-effect="non-scaling-stroke"/><path fill="#7f8038" d="M8.43,7.12a.48.48,0,0,0-.28.08.57.57,0,0,0-.23.3.42.42,0,0,0,0,.35.4.4,0,0,0,.36.2A.52.52,0,0,0,8.6,8a.55.55,0,0,0,.23-.29.45.45,0,0,0,0-.36A.42.42,0,0,0,8.43,7.12Z" vector-effect="non-scaling-stroke"/><path fill="#7f8038" d="M7.26,8.31A.5.5,0,0,0,7,8.39.47.47,0,0,0,6.81,9a.38.38,0,0,0,.34.19.47.47,0,0,0,.27-.08.53.53,0,0,0,.21-.28.41.41,0,0,0,0-.33A.39.39,0,0,0,7.26,8.31Z" vector-effect="non-scaling-stroke"/><path fill="#7f8038" d="M5.88,9.69a.58.58,0,0,0-.21.28.42.42,0,0,0,0,.33.39.39,0,0,0,.34.19.53.53,0,0,0,.27-.08.56.56,0,0,0,.21-.27.49.49,0,0,0,0-.34.41.41,0,0,0-.35-.18A.48.48,0,0,0,5.88,9.69Z" vector-effect="non-scaling-stroke"/><path fill="#7f8038" d="M3.87,11.06A.46.46,0,0,0,4.11,11a.47.47,0,0,0,.19-.25.39.39,0,0,0,0-.3A.34.34,0,0,0,4,10.26a.4.4,0,0,0-.24.07.53.53,0,0,0-.19.25.39.39,0,0,0,0,.3A.35.35,0,0,0,3.87,11.06Z" vector-effect="non-scaling-stroke"/><path fill="#7f8038" d="M36.25,7.65a.64.64,0,0,0-.56-.31.79.79,0,0,0-.46.15.81.81,0,0,0-.34,1,.64.64,0,0,0,.56.31.84.84,0,0,0,.47-.15A.82.82,0,0,0,36.25,7.65Z" vector-effect="non-scaling-stroke"/><path fill="#7f8038" d="M34,7.25a.63.63,0,0,0,.56.3A.92.92,0,0,0,35,7.41a.9.9,0,0,0,.37-.49.68.68,0,0,0,0-.56.64.64,0,0,0-.56-.31.79.79,0,0,0-.46.15A.81.81,0,0,0,34,7.25Z" vector-effect="non-scaling-stroke"/><path fill="#7f8038" d="M33,6.05a.64.64,0,0,0,.56.31A.79.79,0,0,0,34,6.21a.81.81,0,0,0,.33-1,.62.62,0,0,0-.55-.31.79.79,0,0,0-.46.15A.83.83,0,0,0,33,6.05Z" vector-effect="non-scaling-stroke"/><path fill="#7f8038" d="M31.84,5a.63.63,0,0,0,.55.3.86.86,0,0,0,.46-.14.81.81,0,0,0,.33-1,.61.61,0,0,0-.55-.3.91.91,0,0,0-.46.14A.82.82,0,0,0,31.84,5Z" vector-effect="non-scaling-stroke"/><path fill="#7f8038" d="M30.65,4a.61.61,0,0,0,.54.3.88.88,0,0,0,.46-.14A1,1,0,0,0,32,3.71.69.69,0,0,0,32,3.16a.6.6,0,0,0-.54-.3A.82.82,0,0,0,31,3,.8.8,0,0,0,30.65,4Z" vector-effect="non-scaling-stroke"/><path fill="#7f8038" d="M29.4,3.2a.61.61,0,0,0,.54.3.82.82,0,0,0,.45-.14,1,1,0,0,0,.37-.48.67.67,0,0,0-.05-.54.59.59,0,0,0-.53-.29.87.87,0,0,0-.46.13,1,1,0,0,0-.36.48A.67.67,0,0,0,29.4,3.2Z" vector-effect="non-scaling-stroke"/><path fill="#7f8038" d="M28.14,2.53a.61.61,0,0,0,.53.3.85.85,0,0,0,.45-.14.92.92,0,0,0,.36-.47.65.65,0,0,0-.05-.53.58.58,0,0,0-.53-.3.82.82,0,0,0-.44.14A.92.92,0,0,0,28.1,2,.69.69,0,0,0,28.14,2.53Z" vector-effect="non-scaling-stroke"/><path fill="#7f8038" d="M26.81,2a.59.59,0,0,0,.52.29.87.87,0,0,0,.44-.13.94.94,0,0,0,.36-.46.65.65,0,0,0-.05-.53.58.58,0,0,0-.52-.29.82.82,0,0,0-.44.14A.76.76,0,0,0,26.81,2Z" vector-effect="non-scaling-stroke"/><path fill="#7f8038" d="M25.94,1.82a.86.86,0,0,0,.43-.13.76.76,0,0,0,.3-1,.55.55,0,0,0-.51-.28.74.74,0,0,0-.42.13.88.88,0,0,0-.36.45.66.66,0,0,0,.05.52A.58.58,0,0,0,25.94,1.82Z" vector-effect="non-scaling-stroke"/><path fill="#7f8038" d="M24.47,1.5a.72.72,0,0,0,.42-.13.73.73,0,0,0,.3-.94.56.56,0,0,0-.5-.27.76.76,0,0,0-.42.13.77.77,0,0,0-.33.44.58.58,0,0,0,0,.5A.54.54,0,0,0,24.47,1.5Z" vector-effect="non-scaling-stroke"/><path fill="#7f8038" d="M23,1.34a.79.79,0,0,0,.41-.13.78.78,0,0,0,.33-.43.59.59,0,0,0,0-.49A.54.54,0,0,0,23.21,0a.71.71,0,0,0-.41.13.73.73,0,0,0-.29.92A.55.55,0,0,0,23,1.34Z" vector-effect="non-scaling-stroke"/><path fill="#7f8038" d="M21.48,1.27a.72.72,0,0,0,.4-.12.7.7,0,0,0,.28-.89A.53.53,0,0,0,21.69,0a.77.77,0,0,0-.4.12A.7.7,0,0,0,21,1,.55.55,0,0,0,21.48,1.27Z" vector-effect="non-scaling-stroke"/><path fill="#7f8038" d="M20,1.34a.77.77,0,0,0,.38-.12A.66.66,0,0,0,20.6.36.51.51,0,0,0,20.15.1a.81.81,0,0,0-.39.12.67.67,0,0,0-.27.86A.52.52,0,0,0,20,1.34Z" vector-effect="non-scaling-stroke"/><path fill="#7f8038" d="M18.4,1.53a.63.63,0,0,0,.37-.12A.65.65,0,0,0,19,.58.5.5,0,0,0,18.6.34a.7.7,0,0,0-.37.11.72.72,0,0,0-.3.39.58.58,0,0,0,0,.45A.5.5,0,0,0,18.4,1.53Z" vector-effect="non-scaling-stroke"/><path fill="#7f8038" d="M16.86,1.84a.61.61,0,0,0,.36-.11.68.68,0,0,0,.28-.37.53.53,0,0,0,0-.43A.48.48,0,0,0,17.05.7a.69.69,0,0,0-.36.11.7.7,0,0,0-.29.37.53.53,0,0,0,0,.43A.46.46,0,0,0,16.86,1.84Z" vector-effect="non-scaling-stroke"/><path fill="#7f8038" d="M15.33,2.28a.6.6,0,0,0,.34-.11A.69.69,0,0,0,16,1.82a.52.52,0,0,0,0-.41.45.45,0,0,0-.4-.22.61.61,0,0,0-.34.1.59.59,0,0,0-.24.76A.44.44,0,0,0,15.33,2.28Z" vector-effect="non-scaling-stroke"/><path fill="#7f8038" d="M13.83,2.84a.63.63,0,0,0,.32-.1A.57.57,0,0,0,14.38,2,.43.43,0,0,0,14,1.8a.6.6,0,0,0-.33.1.68.68,0,0,0-.26.34.5.5,0,0,0,0,.38A.43.43,0,0,0,13.83,2.84Z" vector-effect="non-scaling-stroke"/><path fill="#7f8038" d="M12.36,3.51a.57.57,0,0,0,.3-.1.53.53,0,0,0,.22-.69.4.4,0,0,0-.36-.19.55.55,0,0,0-.3.09.6.6,0,0,0-.25.32.44.44,0,0,0,0,.36A.4.4,0,0,0,12.36,3.51Z" vector-effect="non-scaling-stroke"/><path fill="#7f8038" d="M10.93,4.29a.62.62,0,0,0,.29-.09.59.59,0,0,0,.24-.3.46.46,0,0,0,0-.35.39.39,0,0,0-.34-.19.52.52,0,0,0-.29.09.56.56,0,0,0-.23.3.46.46,0,0,0,0,.35A.39.39,0,0,0,10.93,4.29Z" vector-effect="non-scaling-stroke"/><path fill="#7f8038" d="M9.57,5.22a.52.52,0,0,0,.29-.09.66.66,0,0,0,.24-.31.45.45,0,0,0,0-.36.42.42,0,0,0-.37-.19.6.6,0,0,0-.29.08.64.64,0,0,0-.23.31.45.45,0,0,0,0,.36A.41.41,0,0,0,9.57,5.22Z" vector-effect="non-scaling-stroke"/><path fill="#7f8038" d="M8.26,6.25a.47.47,0,0,0,.3-.1.53.53,0,0,0,.24-.31.47.47,0,0,0,0-.37.42.42,0,0,0-.38-.2.52.52,0,0,0-.29.09.53.53,0,0,0-.24.31.47.47,0,0,0,0,.37A.41.41,0,0,0,8.26,6.25Z" vector-effect="non-scaling-stroke"/><path fill="#7f8038" d="M7,7.32a.47.47,0,0,0,.28-.09.49.49,0,0,0,.2-.63.4.4,0,0,0-.36-.19.43.43,0,0,0-.27.08.55.55,0,0,0-.23.29.44.44,0,0,0,0,.34A.38.38,0,0,0,7,7.32Z" vector-effect="non-scaling-stroke"/><path fill="#7f8038" d="M5.89,8.49a.52.52,0,0,0,.26-.08.58.58,0,0,0,.21-.28.39.39,0,0,0,0-.32A.36.36,0,0,0,6,7.62a.47.47,0,0,0-.26.08A.45.45,0,0,0,5.53,8a.39.39,0,0,0,0,.32A.38.38,0,0,0,5.89,8.49Z" vector-effect="non-scaling-stroke"/><path fill="#7f8038" d="M4.8,9.78a.5.5,0,0,0,.26-.08.56.56,0,0,0,.21-.27.47.47,0,0,0,0-.33.39.39,0,0,0-.34-.18A.44.44,0,0,0,4.65,9a.49.49,0,0,0-.21.26.46.46,0,0,0,0,.33A.37.37,0,0,0,4.8,9.78Z" vector-effect="non-scaling-stroke"/><path fill="#7f8038" d="M3.35,30.66a.36.36,0,0,0-.3-.17.37.37,0,0,0-.21.06.39.39,0,0,0-.14.5.36.36,0,0,0,.3.17.37.37,0,0,0,.21-.06A.38.38,0,0,0,3.35,30.66Z" vector-effect="non-scaling-stroke"/><path fill="#7f8038" d="M2.6,29.46a.33.33,0,0,0-.3-.17.46.46,0,0,0-.21.05.44.44,0,0,0-.16.22.34.34,0,0,0,0,.28.34.34,0,0,0,.3.18A.37.37,0,0,0,2.47,30,.38.38,0,0,0,2.6,29.46Z" vector-effect="non-scaling-stroke"/><path fill="#7f8038" d="M2.93,17.37a.37.37,0,0,0,0-.31.34.34,0,0,0-.32-.18.4.4,0,0,0-.24.07.42.42,0,0,0-.16.56.36.36,0,0,0,.32.18.42.42,0,0,0,.24-.07A.47.47,0,0,0,2.93,17.37Z" vector-effect="non-scaling-stroke"/><path fill="#7f8038" d="M40.33,17.81l.11-.53c0-.08,0-.15,0-.23a1.49,1.49,0,0,0,0-.21.83.83,0,0,0-.12-.47.43.43,0,0,0-.33-.15h0a.73.73,0,0,0-.62.23,1.53,1.53,0,0,0-.27.63l-.86,4.08a1.13,1.13,0,0,0,0,.25.45.45,0,0,0,.13.36.61.61,0,0,0,.44.13.69.69,0,0,0,.41-.12.86.86,0,0,0,.28-.29,1.71,1.71,0,0,0,.17-.39,3.2,3.2,0,0,0,.1-.39l.16-.75h1.93l-.21,1a3.29,3.29,0,0,1-.36,1,2.48,2.48,0,0,1-.65.76,3.12,3.12,0,0,1-1,.5,4.6,4.6,0,0,1-1.3.17,2.27,2.27,0,0,1-1.56-.44,1.69,1.69,0,0,1-.47-1.3,5.06,5.06,0,0,1,.09-.89l.71-3.39a3.4,3.4,0,0,1,1.05-2,3.2,3.2,0,0,1,2.09-.64,2.82,2.82,0,0,1,1.64.4,1.47,1.47,0,0,1,.59,1.3,3.4,3.4,0,0,1-.08.69l-.14.69Z" vector-effect="non-scaling-stroke"/><polygon fill="#7f8038" points="45.14 17.63 45.16 17.63 46.71 14.93 48.65 14.93 45.67 19.72 44.95 23.18 43.02 23.18 43.73 19.72 42.77 14.93 44.73 14.93 45.14 17.63" vector-effect="non-scaling-stroke"/><polygon fill="#7f8038" points="49.01 14.93 54.03 14.93 53.69 16.58 52.13 16.58 50.76 23.18 48.83 23.18 50.19 16.58 48.67 16.58 49.01 14.93" vector-effect="non-scaling-stroke"/><polygon fill="#7f8038" points="53.07 23.18 54.78 14.93 59.21 14.93 58.87 16.58 56.37 16.58 56.07 18.1 58.49 18.1 58.13 19.75 55.72 19.75 55.35 21.53 57.98 21.53 57.64 23.18 53.07 23.18" vector-effect="non-scaling-stroke"/><path fill="#7f8038" d="M62.91,17.81l.11-.53c0-.08,0-.15,0-.23a1.49,1.49,0,0,0,0-.21.75.75,0,0,0-.13-.47.4.4,0,0,0-.33-.15h0a.73.73,0,0,0-.62.23,1.53,1.53,0,0,0-.27.63l-.86,4.08a1.13,1.13,0,0,0,0,.25.45.45,0,0,0,.13.36.61.61,0,0,0,.44.13.69.69,0,0,0,.41-.12.86.86,0,0,0,.28-.29,1.71,1.71,0,0,0,.17-.39,3.2,3.2,0,0,0,.1-.39l.15-.75h1.94l-.21,1a3.59,3.59,0,0,1-.36,1,2.48,2.48,0,0,1-.65.76,3.12,3.12,0,0,1-1,.5,4.66,4.66,0,0,1-1.3.17,2.25,2.25,0,0,1-1.56-.44,1.69,1.69,0,0,1-.48-1.3,5.15,5.15,0,0,1,.1-.89l.71-3.39a3.4,3.4,0,0,1,1-2,3.2,3.2,0,0,1,2.09-.64,2.84,2.84,0,0,1,1.64.4,1.47,1.47,0,0,1,.59,1.3,3.4,3.4,0,0,1-.08.69l-.14.69Z" vector-effect="non-scaling-stroke"/><path fill="#7f8038" d="M64.28,23.18l3.52-8.25h2.33l.09,8.25h-2l0-1.6H66.79l-.56,1.6Zm4.37-6.75h0L67.3,20.12h1.12Z" vector-effect="non-scaling-stroke"/><path fill="#7f8038" d="M72.7,23.18H70.77l1.7-8.25H75.3a2.64,2.64,0,0,1,1.49.35,1.35,1.35,0,0,1,.5,1.17c0,.11,0,.23,0,.35s0,.26-.07.41a3.17,3.17,0,0,1-.43,1.13,2.09,2.09,0,0,1-1,.75v0a1,1,0,0,1,.55.31.8.8,0,0,1,.2.57v.09a.38.38,0,0,1,0,.1c0,.17,0,.37-.09.62l-.12.73c0,.25-.08.49-.11.72a4.26,4.26,0,0,0,0,.54.75.75,0,0,0,0,.16.32.32,0,0,0,.08.12l0,.11H74.15a1.36,1.36,0,0,1,0-.29V22.8s0-.06,0-.09c.06-.37.13-.71.2-1a7.32,7.32,0,0,0,.17-.87s0-.07,0-.1v-.11a.93.93,0,0,0-.11-.47.46.46,0,0,0-.39-.19h-.64l-.67,3.25Zm1-4.74h.66a.75.75,0,0,0,.37-.09.69.69,0,0,0,.25-.23,1.74,1.74,0,0,0,.18-.33,1.7,1.7,0,0,0,.1-.37A2.26,2.26,0,0,0,75.3,17a.48.48,0,0,0-.23-.48,2.05,2.05,0,0,0-.69-.09H74.1Z" vector-effect="non-scaling-stroke"/><polygon fill="#7f8038" points="76.93 23.18 78.63 14.93 83.07 14.93 82.73 16.58 80.23 16.58 79.92 18.1 82.34 18.1 81.99 19.75 79.57 19.75 79.2 21.53 81.83 21.53 81.49 23.18 76.93 23.18" vector-effect="non-scaling-stroke"/><path fill="#7f8038" d="M43.58,27.24c.08-.37,0-.53-.19-.53s-.37.26-.52,1-.08.9.13.9.34-.1.46-.64H44c-.12.54-.35,1-1,1s-.74-.54-.58-1.31.37-1.3,1.13-1.3.67.53.59.9Z" vector-effect="non-scaling-stroke"/><path fill="#7f8038" d="M45.5,26.39h.62l.13,2.51h-.52v-.53h-.67l-.22.53H44.3l1.2-2.51ZM45.23,28h.49V26.83h0Z" vector-effect="non-scaling-stroke"/><polygon fill="#7f8038" points="48.04 26.39 48.28 28.11 48.29 28.11 48.66 26.39 49.13 26.39 48.59 28.9 48.01 28.9 47.77 27.14 47.76 27.14 47.39 28.9 46.92 28.9 47.45 26.39 48.04 26.39" vector-effect="non-scaling-stroke"/><path fill="#7f8038" d="M50.86,27.24c.08-.37,0-.53-.19-.53s-.37.26-.53,1-.08.9.14.9.33-.1.45-.64h.51c-.12.54-.35,1-1,1s-.74-.54-.57-1.31.37-1.3,1.13-1.3.66.53.59.9Z" vector-effect="non-scaling-stroke"/><polygon fill="#7f8038" points="53.75 26.39 53.66 26.8 52.77 26.8 52.64 27.4 53.48 27.4 53.4 27.81 52.55 27.81 52.41 28.49 53.34 28.49 53.25 28.9 51.81 28.9 52.35 26.39 53.75 26.39" vector-effect="non-scaling-stroke"/><path fill="#7f8038" d="M54.53,26.39h.94c.41,0,.62.22.53.65a.74.74,0,0,1-.55.62h0c.33.05.34.24.23.77,0,.26-.06.4,0,.45v0h-.55a.38.38,0,0,1,0-.26l.09-.48c0-.2,0-.32-.23-.32h-.27L54.5,28.9H54l.54-2.51Zm.27,1.1H55a.42.42,0,0,0,.46-.38c.05-.23,0-.35-.27-.35H55Z" vector-effect="non-scaling-stroke"/><polygon fill="#7f8038" points="58.31 26.39 58.82 26.39 58.62 27.35 59.21 27.35 59.41 26.39 59.92 26.39 59.38 28.9 58.88 28.9 59.11 27.79 58.52 27.79 58.28 28.9 57.78 28.9 58.31 26.39" vector-effect="non-scaling-stroke"/><path fill="#7f8038" d="M61.57,26.34c.77,0,.74.54.58,1.3S61.78,29,61,29s-.74-.54-.58-1.31.37-1.3,1.13-1.3Zm-.47,2.24h0c.3,0,.4-.26.54-.94s.15-.93-.15-.93-.4.26-.54.93S60.8,28.58,61.1,28.58Z" vector-effect="non-scaling-stroke"/><path fill="#7f8038" d="M63.25,28.12l0,.07c0,.24,0,.39.26.39a.37.37,0,0,0,.36-.31c0-.23-.05-.31-.36-.43s-.58-.34-.49-.76a.88.88,0,0,1,.93-.74c.45,0,.74.19.64.68l0,.07h-.48c.05-.24,0-.38-.2-.38a.33.33,0,0,0-.35.29c0,.16,0,.25.19.35l.35.17a.5.5,0,0,1,.34.66.94.94,0,0,1-1,.77c-.57,0-.74-.27-.64-.73l0-.1Z" vector-effect="non-scaling-stroke"/><path fill="#7f8038" d="M65.53,26.39h.88c.52,0,.61.37.53.75a.9.9,0,0,1-1,.76h-.27l-.21,1H65l.54-2.51Zm.26,1.14H66a.41.41,0,0,0,.41-.38c.06-.25,0-.39-.27-.39H66Z" vector-effect="non-scaling-stroke"/><polygon fill="#7f8038" points="67.33 28.9 67.87 26.39 68.38 26.39 67.84 28.9 67.33 28.9" vector-effect="non-scaling-stroke"/><polygon fill="#7f8038" points="70.71 26.39 70.63 26.8 70.08 26.8 69.63 28.9 69.12 28.9 69.57 26.8 69.02 26.8 69.11 26.39 70.71 26.39" vector-effect="non-scaling-stroke"/><path fill="#7f8038" d="M71.72,26.39h.63l.13,2.51H72v-.53h-.66l-.23.53h-.53l1.2-2.51ZM71.45,28h.49V26.83h0Z" vector-effect="non-scaling-stroke"/><polygon fill="#7f8038" points="73.14 28.9 73.68 26.39 74.18 26.39 73.74 28.49 74.64 28.49 74.55 28.9 73.14 28.9" vector-effect="non-scaling-stroke"/><path fill="#7f8038" d="M75.84,28.12l0,.07c0,.24,0,.39.26.39a.37.37,0,0,0,.36-.31c0-.23,0-.31-.36-.43s-.58-.34-.49-.76a.88.88,0,0,1,.93-.74c.45,0,.74.19.64.68l0,.07h-.48c0-.24,0-.38-.2-.38a.33.33,0,0,0-.35.29c0,.16,0,.25.19.35l.35.17a.5.5,0,0,1,.34.66A1,1,0,0,1,76,29c-.57,0-.74-.27-.64-.73l0-.1Z" vector-effect="non-scaling-stroke"/></g></g></g></g></svg>