<svg version="1.2" xmlns="http://www.w3.org/2000/svg" xmlns:xlink="http://www.w3.org/1999/xlink" overflow="visible" preserveAspectRatio="none" viewBox="0 0 102.23999786376953 94.37999725341797" width="53.216503992901515" height="48.959183673469376"><g transform="translate(1, 1)"><g id="f69f938a-d729-4234-85db-fd901e9286f1_1561112171359"><g id="e6f79a03-7d11-481e-a949-914490877d43_1561112171359"><g><g id="d9a16bc8-75ee-4101-a5dc-7478600a4306_1561112171359"><path fill="#464813" d="M50.12,78.59a1,1,0,0,1-.7-.3l-4.78-4.77a1,1,0,0,1,0-1.42,1,1,0,0,1,1.41,0l4.07,4.07,4.07-4.07C72.77,55.67,83.25,45.8,83.25,33.57A17.58,17.58,0,0,0,65.48,15.8a19.61,19.61,0,0,0-14.59,6.81,1,1,0,0,1-1.53,0A19.64,19.64,0,0,0,34.77,15.8,17.57,17.57,0,0,0,17,33.57c0,4.48,1.41,8.75,4.44,13.43a1,1,0,1,1-1.67,1.09c-3.21-5-4.77-9.7-4.77-14.52A19.55,19.55,0,0,1,34.77,13.8a21.39,21.39,0,0,1,15.35,6.66A21.41,21.41,0,0,1,65.48,13.8,19.56,19.56,0,0,1,85.25,33.57c0,13.73-12.45,24.74-29.69,40l-4.73,4.73A1,1,0,0,1,50.12,78.59Z" vector-effect="non-scaling-stroke"/></g><g id="fe5ab0b2-c1c2-47bd-a71a-72a16175ea6d_1561112171359"><path fill="#464813" d="M50.12,92.38a1,1,0,0,1-.7-.29l-6.88-6.88C17.86,63.39,0,47.59,0,28A27.72,27.72,0,0,1,28,0a30.33,30.33,0,0,1,22.1,9.8A30.33,30.33,0,0,1,72.23,0a27.72,27.72,0,0,1,28,28c0,6.85-2.22,13.61-6.79,20.66a1,1,0,0,1-1.38.29,1,1,0,0,1-.3-1.38c4.36-6.71,6.47-13.11,6.47-19.57a25.74,25.74,0,0,0-26-26A28.69,28.69,0,0,0,50.89,12a1,1,0,0,1-1.53,0A28.73,28.73,0,0,0,28,2,25.74,25.74,0,0,0,2,28c0,17.8,15.14,32.06,41.91,55.74L50.12,90l6.17-6.17a1,1,0,0,1,1.42,0,1,1,0,0,1,0,1.41l-6.88,6.88A1,1,0,0,1,50.12,92.38Z" vector-effect="non-scaling-stroke"/></g><circle fill="#ffc625" r="2.94" cy="49.95" cx="22.15" vector-effect="non-scaling-stroke"/><circle fill="#ffc625" r="2.94" cy="70.7" cx="43.46" vector-effect="non-scaling-stroke"/><circle fill="#ffc625" r="2.94" cy="82.51" cx="59.03" vector-effect="non-scaling-stroke"/><circle fill="#ffc625" r="2.94" cy="50.21" cx="90.93" vector-effect="non-scaling-stroke"/></g></g></g></g></svg>